<!-- Generated by readme-aura https://github.com/collectioneur/readme-aura -->
<svg width="860" height="110" viewBox="0 0 860 110" xmlns="http://www.w3.org/2000/svg"><defs><clipPath id="satori_bc-id"><path x="0" y="0" width="860" height="110" d="M16,0 h828 a16,16 0 0 1 16,16 v78 a16,16 0 0 1 -16,16 h-828 a16,16 0 0 1 -16,-16 v-78 a16,16 0 0 1 16,-16"/></clipPath></defs><mask id="satori_om-id"><rect x="1" y="1" width="858" height="108" fill="#fff"/><path width="860" height="110" fill="none" stroke="#000" stroke-width="2" d="M4.686,4.686 A16,16 0 0 1 16,0 h828 a16,16 0 0 1 16,16 v78 a16,16 0 0 1 -16,16 h-828 a16,16 0 0 1 -16,-16 v-78 A16,16 0 0 1 4.686,4.686"/></mask><path x="0" y="0" width="860" height="110" fill="#07070e" d="M16,0 h828 a16,16 0 0 1 16,16 v78 a16,16 0 0 1 -16,16 h-828 a16,16 0 0 1 -16,-16 v-78 a16,16 0 0 1 16,-16"/><path width="860" height="110" clip-path="url(#satori_bc-id)" fill="none" stroke="rgba(90,60,200,0.13)" stroke-width="2" d="M4.686,4.686 A16,16 0 0 1 16,0 h828 a16,16 0 0 1 16,16 v78 a16,16 0 0 1 -16,16 h-828 a16,16 0 0 1 -16,-16 v-78 A16,16 0 0 1 4.686,4.686"/><mask id="satori_om-id-0"><rect x="108" y="29" width="36" height="53" fill="#fff"/></mask><mask id="satori_om-id-0-0"><rect x="112" y="29" width="28" height="34" fill="#fff"/></mask><g  ><path fill="#a78bfa" d="M112 46.0L140 46.0L140 49.3L112 49.3L112 46.0Z "/></g><mask id="satori_om-id-0-1"><rect x="108" y="67" width="36" height="15" fill="#fff"/></mask><g  ><path fill="rgba(170,165,210,0.7)" d="M110.2 79L109.1 79L109.1 70.3L112.0 70.3Q113.1 70.3 113.7 70.6Q114.4 71.0 114.7 71.6Q115.0 72.2 115.0 73.0Q115.0 73.7 114.7 74.3Q114.4 74.9 113.7 75.3L113.7 75.3Q113.6 75.4 113.4 75.4L113.4 75.4L115.4 79L114.1 79L112.3 75.6Q112.2 75.6 112.0 75.6L112.0 75.6L110.2 75.6L110.2 79ZM110.2 71.2L110.2 74.6L112.0 74.6Q112.7 74.6 113.1 74.4Q113.5 74.2 113.7 73.8Q113.9 73.5 113.9 73.0L113.9 73.0Q113.9 72.4 113.7 72.1Q113.5 71.7 113.1 71.5Q112.7 71.2 112.0 71.2L112.0 71.2L110.2 71.2ZM119.4 79.1L119.4 79.1Q118.5 79.1 117.8 78.7Q117.1 78.3 116.7 77.5Q116.3 76.8 116.3 75.8Q116.3 74.8 116.7 74.0Q117.1 73.2 117.7 72.8Q118.4 72.4 119.3 72.4L119.3 72.4Q119.8 72.4 120.3 72.5Q120.8 72.7 121.2 73.1Q121.6 73.5 121.9 74.1Q122.1 74.7 122.1 75.6L122.1 75.6L122.1 76.1L117.4 76.1Q117.4 76.7 117.7 77.2L117.7 77.2Q117.9 77.7 118.4 77.9Q118.8 78.2 119.4 78.2L119.4 78.2Q119.8 78.2 120.1 78.1Q120.4 78.0 120.7 77.8Q120.9 77.5 121.0 77.2L121.0 77.2L122.0 77.5Q121.9 78.0 121.5 78.3Q121.1 78.7 120.6 78.9Q120.1 79.1 119.4 79.1ZM117.4 75.2L117.4 75.2L121.1 75.2Q121.0 74.7 120.9 74.4L120.9 74.4Q120.7 73.9 120.3 73.6Q119.9 73.3 119.3 73.3Q118.7 73.3 118.3 73.6Q117.8 73.9 117.6 74.3L117.6 74.3Q117.4 74.7 117.4 75.2ZM124.7 81.4L123.6 81.4L123.6 72.4L124.7 72.4L124.7 73.5L124.8 73.5Q124.9 73.3 125.1 73.1Q125.3 72.8 125.7 72.6Q126.0 72.4 126.7 72.4L126.7 72.4Q127.5 72.4 128.1 72.8Q128.7 73.2 129.1 73.9Q129.5 74.7 129.5 75.7L129.5 75.7Q129.5 76.8 129.1 77.5Q128.8 78.3 128.1 78.7Q127.5 79.1 126.7 79.1L126.7 79.1Q126.1 79.1 125.7 78.9Q125.3 78.7 125.1 78.4Q124.9 78.2 124.8 78.0L124.8 78.0L124.7 78.0L124.7 81.4ZM126.5 78.2L126.5 78.2Q127.1 78.2 127.6 77.9Q128.0 77.5 128.2 77.0Q128.4 76.4 128.4 75.7L128.4 75.7Q128.4 75.1 128.2 74.5Q128.0 74.0 127.6 73.6Q127.1 73.3 126.5 73.3L126.5 73.3Q125.9 73.3 125.5 73.6Q125.1 73.9 124.9 74.5Q124.7 75.0 124.7 75.7L124.7 75.7Q124.7 76.5 124.9 77.0Q125.1 77.6 125.5 77.9Q125.9 78.2 126.5 78.2ZM133.7 79.1L133.7 79.1Q132.8 79.1 132.1 78.7Q131.4 78.3 131.1 77.5Q130.7 76.8 130.7 75.8L130.7 75.8Q130.7 74.7 131.1 74.0Q131.4 73.2 132.1 72.8Q132.8 72.4 133.7 72.4L133.7 72.4Q134.6 72.4 135.2 72.8Q135.9 73.2 136.3 74.0Q136.7 74.7 136.7 75.8L136.7 75.8Q136.7 76.8 136.3 77.5Q135.9 78.3 135.2 78.7Q134.6 79.1 133.7 79.1ZM133.7 78.2L133.7 78.2Q134.3 78.2 134.7 77.9Q135.2 77.5 135.4 77.0Q135.6 76.4 135.6 75.8L135.6 75.8Q135.6 75.1 135.4 74.6Q135.2 74.0 134.7 73.7Q134.3 73.3 133.7 73.3L133.7 73.3Q133.0 73.3 132.6 73.7Q132.2 74.0 132.0 74.6Q131.7 75.1 131.7 75.8L131.7 75.8Q131.7 76.4 132.0 77.0Q132.2 77.5 132.6 77.9Q133.0 78.2 133.7 78.2ZM140.4 79.1L140.4 79.1Q139.7 79.1 139.2 78.9Q138.7 78.7 138.4 78.4Q138.0 78.0 137.9 77.4L137.9 77.4L138.9 77.2Q139.0 77.7 139.4 78.0Q139.8 78.2 140.4 78.2L140.4 78.2Q141.1 78.2 141.5 77.9Q141.9 77.6 141.9 77.2L141.9 77.2Q141.9 76.9 141.7 76.7Q141.4 76.4 140.9 76.3L140.9 76.3L139.9 76.1Q139.0 75.9 138.5 75.4Q138.1 75.0 138.1 74.3L138.1 74.3Q138.1 73.7 138.4 73.3Q138.7 72.9 139.3 72.6Q139.8 72.4 140.5 72.4L140.5 72.4Q141.2 72.4 141.7 72.6Q142.1 72.8 142.4 73.1Q142.7 73.5 142.9 73.9L142.9 73.9L141.9 74.2Q141.8 73.8 141.5 73.6Q141.2 73.3 140.5 73.3L140.5 73.3Q139.9 73.3 139.5 73.5Q139.2 73.8 139.2 74.2L139.2 74.2Q139.2 74.6 139.4 74.8Q139.7 75.0 140.3 75.2L140.3 75.2L141.3 75.4Q142.1 75.6 142.6 76.0Q143.0 76.5 143.0 77.2L143.0 77.2Q143.0 77.7 142.7 78.2Q142.3 78.6 141.8 78.9Q141.2 79.1 140.4 79.1Z "/></g><mask id="satori_om-id-1"><rect x="278" y="29" width="55" height="53" fill="#fff"/></mask><mask id="satori_om-id-1-0"><rect x="292" y="29" width="28" height="34" fill="#fff"/></mask><g  ><path fill="#60a5fa" d="M292 46.0L320 46.0L320 49.3L292 49.3L292 46.0Z "/></g><mask id="satori_om-id-1-1"><rect x="278" y="67" width="55" height="15" fill="#fff"/></mask><g  ><path fill="rgba(170,165,210,0.7)" d="M280.2 79L279.1 79L279.1 70.3L284.3 70.3L284.3 71.3L280.2 71.3L280.2 74.2L283.9 74.2L283.9 75.2L280.2 75.2L280.2 79ZM288.7 79.1L288.7 79.1Q287.8 79.1 287.1 78.7Q286.4 78.3 286.1 77.5Q285.7 76.8 285.7 75.8L285.7 75.8Q285.7 74.7 286.1 74.0Q286.4 73.2 287.1 72.8Q287.8 72.4 288.7 72.4L288.7 72.4Q289.6 72.4 290.2 72.8Q290.9 73.2 291.3 74.0Q291.7 74.7 291.7 75.8L291.7 75.8Q291.7 76.8 291.3 77.5Q290.9 78.3 290.2 78.7Q289.6 79.1 288.7 79.1ZM288.7 78.2L288.7 78.2Q289.3 78.2 289.8 77.9Q290.2 77.5 290.4 77.0Q290.6 76.4 290.6 75.8L290.6 75.8Q290.6 75.1 290.4 74.6Q290.2 74.0 289.8 73.7Q289.3 73.3 288.7 73.3L288.7 73.3Q288.0 73.3 287.6 73.7Q287.2 74.0 287.0 74.6Q286.8 75.1 286.8 75.8L286.8 75.8Q286.8 76.4 287.0 77.0Q287.2 77.5 287.6 77.9Q288.0 78.2 288.7 78.2ZM293.2 70.3L294.3 70.3L294.3 79L293.2 79L293.2 70.3ZM296.1 70.3L297.2 70.3L297.2 79L296.1 79L296.1 70.3ZM301.7 79.1L301.7 79.1Q300.8 79.1 300.1 78.7Q299.5 78.3 299.1 77.5Q298.7 76.8 298.7 75.8L298.7 75.8Q298.7 74.7 299.1 74.0Q299.5 73.2 300.1 72.8Q300.8 72.4 301.7 72.4L301.7 72.4Q302.6 72.4 303.3 72.8Q303.9 73.2 304.3 74.0Q304.7 74.7 304.7 75.8L304.7 75.8Q304.7 76.8 304.3 77.5Q303.9 78.3 303.3 78.7Q302.6 79.1 301.7 79.1ZM301.7 78.2L301.7 78.2Q302.3 78.2 302.8 77.9Q303.2 77.5 303.4 77.0Q303.6 76.4 303.6 75.8L303.6 75.8Q303.6 75.1 303.4 74.6Q303.2 74.0 302.8 73.7Q302.3 73.3 301.7 73.3L301.7 73.3Q301.0 73.3 300.6 73.7Q300.2 74.0 300.0 74.6Q299.8 75.1 299.8 75.8L299.8 75.8Q299.8 76.4 300.0 77.0Q300.2 77.5 300.6 77.9Q301.0 78.2 301.7 78.2ZM308.7 79L307.7 79L305.7 72.4L306.8 72.4L307.6 75.3Q307.8 75.9 308.0 76.6L308.0 76.6Q308.1 77.2 308.2 77.9L308.2 77.9Q308.4 77.2 308.5 76.7L308.5 76.7Q308.7 75.9 308.9 75.3L308.9 75.3L309.6 72.4L310.8 72.4L311.5 75.3Q311.7 75.9 311.9 76.7L311.9 76.7Q312.0 77.2 312.2 77.9L312.2 77.9Q312.3 77.2 312.4 76.7L312.4 76.7Q312.6 75.9 312.8 75.3L312.8 75.3L313.6 72.4L314.7 72.4L312.7 79L311.7 79L310.8 76.0Q310.7 75.6 310.6 75.1Q310.4 74.6 310.3 74.2L310.3 74.2Q310.3 73.9 310.2 73.6L310.2 73.6Q310.1 73.9 310.1 74.1L310.1 74.1Q310.0 74.6 309.8 75.1Q309.7 75.6 309.6 76.0L309.6 76.0L308.7 79ZM318.8 79.1L318.8 79.1Q317.8 79.1 317.1 78.7Q316.5 78.3 316.1 77.5Q315.7 76.8 315.7 75.8Q315.7 74.8 316.1 74.0Q316.4 73.2 317.1 72.8Q317.8 72.4 318.7 72.4L318.7 72.4Q319.2 72.4 319.7 72.5Q320.2 72.7 320.6 73.1Q321.0 73.5 321.3 74.1Q321.5 74.7 321.5 75.6L321.5 75.6L321.5 76.1L316.8 76.1Q316.8 76.7 317.0 77.2L317.0 77.2Q317.3 77.7 317.7 77.9Q318.2 78.2 318.8 78.2L318.8 78.2Q319.2 78.2 319.5 78.1Q319.8 78.0 320.0 77.8Q320.3 77.5 320.4 77.2L320.4 77.2L321.4 77.5Q321.3 78.0 320.9 78.3Q320.5 78.7 320.0 78.9Q319.5 79.1 318.8 79.1ZM316.8 75.2L316.8 75.2L320.4 75.2Q320.4 74.7 320.3 74.4L320.3 74.4Q320.1 73.9 319.7 73.6Q319.3 73.3 318.7 73.3Q318.1 73.3 317.7 73.6Q317.2 73.9 317.0 74.3L317.0 74.3Q316.8 74.7 316.8 75.2ZM324.1 79L323.0 79L323.0 72.4L324.0 72.4L324.0 73.5L324.1 73.5Q324.3 73.0 324.8 72.7Q325.2 72.4 325.8 72.4L325.8 72.4Q325.9 72.4 326.1 72.4Q326.3 72.4 326.4 72.4L326.4 72.4L326.4 73.4Q326.3 73.4 326.1 73.4Q325.9 73.4 325.7 73.4L325.7 73.4Q325.3 73.4 324.9 73.6Q324.5 73.8 324.3 74.1Q324.1 74.5 324.1 74.9L324.1 74.9L324.1 79ZM329.8 79.1L329.8 79.1Q329.1 79.1 328.6 78.9Q328.1 78.7 327.7 78.4Q327.4 78.0 327.3 77.4L327.3 77.4L328.3 77.2Q328.4 77.7 328.8 78.0Q329.2 78.2 329.8 78.2L329.8 78.2Q330.4 78.2 330.9 77.9Q331.3 77.6 331.3 77.2L331.3 77.2Q331.3 76.9 331.0 76.7Q330.8 76.4 330.3 76.3L330.3 76.3L329.2 76.1Q328.3 75.9 327.9 75.4Q327.5 75.0 327.5 74.3L327.5 74.3Q327.5 73.7 327.8 73.3Q328.1 72.9 328.6 72.6Q329.2 72.4 329.9 72.4L329.9 72.4Q330.6 72.4 331.0 72.6Q331.5 72.8 331.8 73.1Q332.1 73.5 332.2 73.9L332.2 73.9L331.3 74.2Q331.1 73.8 330.8 73.6Q330.5 73.3 329.9 73.3L329.9 73.3Q329.3 73.3 328.9 73.5Q328.5 73.8 328.5 74.2L328.5 74.2Q328.5 74.6 328.8 74.8Q329.0 75.0 329.6 75.2L329.6 75.2L330.6 75.4Q331.5 75.6 331.9 76.0Q332.4 76.5 332.4 77.2L332.4 77.2Q332.4 77.7 332.0 78.2Q331.7 78.6 331.1 78.9Q330.5 79.1 329.8 79.1Z "/></g><mask id="satori_om-id-2"><rect x="468" y="29" width="73" height="53" fill="#fff"/></mask><mask id="satori_om-id-2-0"><rect x="491" y="29" width="28" height="34" fill="#fff"/></mask><g  ><path fill="#facc15" d="M491 46.0L519 46.0L519 49.3L491 49.3L491 46.0Z "/></g><mask id="satori_om-id-2-1"><rect x="468" y="67" width="73" height="15" fill="#fff"/></mask><g  ><path fill="rgba(170,165,210,0.7)" d="M471.8 79.2L471.8 79.2Q470.9 79.2 470.2 78.8Q469.5 78.5 469.1 78.0Q468.7 77.4 468.7 76.7L468.7 76.7L469.8 76.7Q469.9 77.2 470.2 77.5Q470.4 77.8 470.9 78.0Q471.3 78.2 471.8 78.2L471.8 78.2Q472.4 78.2 472.9 78.0Q473.4 77.8 473.7 77.4Q473.9 77.1 473.9 76.6L473.9 76.6Q473.9 76.2 473.7 75.9Q473.5 75.7 473.1 75.5Q472.7 75.3 472.2 75.2L472.2 75.2L471.2 74.9Q470.1 74.6 469.5 74.0Q468.9 73.5 468.9 72.6L468.9 72.6Q468.9 71.9 469.3 71.3Q469.7 70.8 470.4 70.5Q471.1 70.2 471.9 70.2L471.9 70.2Q472.8 70.2 473.4 70.5Q474.1 70.8 474.5 71.3Q474.9 71.8 474.9 72.5L474.9 72.5L473.8 72.5Q473.7 71.8 473.2 71.5Q472.7 71.1 471.9 71.1L471.9 71.1Q471.3 71.1 470.9 71.3Q470.5 71.5 470.2 71.8Q470.0 72.1 470.0 72.6L470.0 72.6Q470.0 73.0 470.3 73.3Q470.6 73.6 471.0 73.7Q471.4 73.9 471.7 74.0L471.7 74.0L472.5 74.2Q472.9 74.3 473.3 74.5Q473.7 74.6 474.1 74.9Q474.5 75.2 474.8 75.6Q475.0 76.0 475.0 76.6L475.0 76.6Q475.0 77.3 474.6 77.9Q474.3 78.5 473.6 78.8Q472.9 79.2 471.8 79.2ZM477.9 72.4L479.2 72.4L479.2 73.4L477.9 73.4L477.9 77.3Q477.9 77.7 478.0 77.9Q478.2 78.1 478.6 78.1L478.6 78.1Q478.7 78.1 478.9 78.1Q479.0 78.1 479.2 78.1L479.2 78.1L479.4 79.0Q479.2 79.0 479.0 79.1Q478.8 79.1 478.6 79.1L478.6 79.1Q477.8 79.1 477.3 78.6Q476.8 78.2 476.8 77.4L476.8 77.4L476.8 73.4L475.8 73.4L475.8 72.4L476.8 72.4L476.8 70.9L477.9 70.9L477.9 72.4ZM482.4 79.2L482.4 79.2Q481.8 79.2 481.3 78.9Q480.8 78.7 480.5 78.2Q480.2 77.8 480.2 77.1L480.2 77.1Q480.2 76.6 480.4 76.2Q480.6 75.9 481.0 75.7Q481.3 75.5 481.8 75.4Q482.2 75.3 482.7 75.2L482.7 75.2Q483.3 75.1 483.7 75.1Q484.0 75.1 484.2 75.0Q484.4 74.9 484.4 74.6L484.4 74.6L484.4 74.6Q484.4 74.2 484.2 73.9Q484.1 73.6 483.8 73.4Q483.5 73.3 483.0 73.3L483.0 73.3Q482.5 73.3 482.2 73.4Q481.9 73.6 481.7 73.8Q481.5 74.0 481.4 74.3L481.4 74.3L480.3 73.9Q480.6 73.3 481.0 73.0Q481.4 72.6 482.0 72.5Q482.5 72.4 483.0 72.4L483.0 72.4Q483.3 72.4 483.7 72.4Q484.1 72.5 484.5 72.8Q484.9 73.0 485.2 73.5Q485.4 73.9 485.4 74.7L485.4 74.7L485.4 79L484.4 79L484.4 78.1L484.3 78.1Q484.2 78.3 484.0 78.6Q483.7 78.8 483.3 79.0Q482.9 79.2 482.4 79.2ZM482.6 78.2L482.6 78.2Q483.2 78.2 483.6 78.0Q484.0 77.8 484.2 77.4Q484.4 77.0 484.4 76.6L484.4 76.6L484.4 75.7Q484.3 75.8 484.1 75.9Q483.9 75.9 483.6 76.0Q483.3 76.0 483.1 76.0Q482.8 76.1 482.7 76.1L482.7 76.1Q482.3 76.1 481.9 76.3Q481.6 76.4 481.4 76.6Q481.2 76.8 481.2 77.2L481.2 77.2Q481.2 77.5 481.4 77.8Q481.6 78.0 481.9 78.1Q482.2 78.2 482.6 78.2ZM488.3 79L487.3 79L487.3 72.4L488.3 72.4L488.3 73.5L488.4 73.5Q488.6 73.0 489.0 72.7Q489.5 72.4 490.1 72.4L490.1 72.4Q490.2 72.4 490.4 72.4Q490.5 72.4 490.6 72.4L490.6 72.4L490.6 73.4Q490.6 73.4 490.4 73.4Q490.2 73.4 490.0 73.4L490.0 73.4Q489.5 73.4 489.1 73.6Q488.8 73.8 488.6 74.1Q488.3 74.5 488.3 74.9L488.3 74.9L488.3 79ZM494.0 79.1L494.0 79.1Q493.4 79.1 492.8 78.9Q492.3 78.7 492.0 78.4Q491.6 78.0 491.5 77.4L491.5 77.4L492.5 77.2Q492.7 77.7 493.0 78.0Q493.4 78.2 494.0 78.2L494.0 78.2Q494.7 78.2 495.1 77.9Q495.5 77.6 495.5 77.2L495.5 77.2Q495.5 76.9 495.3 76.7Q495.0 76.4 494.6 76.3L494.6 76.3L493.5 76.1Q492.6 75.9 492.1 75.4Q491.7 75.0 491.7 74.3L491.7 74.3Q491.7 73.7 492.0 73.3Q492.3 72.9 492.9 72.6Q493.4 72.4 494.1 72.4L494.1 72.4Q494.8 72.4 495.3 72.6Q495.8 72.8 496.1 73.1Q496.3 73.5 496.5 73.9L496.5 73.9L495.5 74.2Q495.4 73.8 495.1 73.6Q494.8 73.3 494.1 73.3L494.1 73.3Q493.6 73.3 493.2 73.5Q492.8 73.8 492.8 74.2L492.8 74.2Q492.8 74.6 493.0 74.8Q493.3 75.0 493.9 75.2L493.9 75.2L494.9 75.4Q495.8 75.6 496.2 76.0Q496.6 76.5 496.6 77.2L496.6 77.2Q496.6 77.7 496.3 78.2Q496.0 78.6 495.4 78.9Q494.8 79.1 494.0 79.1Z M507.0 79L501.6 79L501.6 70.3L507.0 70.3L507.0 71.3L502.8 71.3L502.8 74.1L506.7 74.1L506.7 75.1L502.8 75.1L502.8 78.0L507.0 78.0L507.0 79ZM510.6 79.2L510.6 79.2Q509.9 79.2 509.4 78.9Q508.9 78.7 508.6 78.2Q508.3 77.8 508.3 77.1L508.3 77.1Q508.3 76.6 508.6 76.2Q508.8 75.9 509.1 75.7Q509.5 75.5 510.0 75.4Q510.4 75.3 510.9 75.2L510.9 75.2Q511.5 75.1 511.8 75.1Q512.2 75.1 512.4 75.0Q512.6 74.9 512.6 74.6L512.6 74.6L512.6 74.6Q512.6 74.2 512.4 73.9Q512.3 73.6 512.0 73.4Q511.6 73.3 511.2 73.3L511.2 73.3Q510.7 73.3 510.4 73.4Q510.1 73.6 509.8 73.8Q509.6 74.0 509.5 74.3L509.5 74.3L508.5 73.9Q508.8 73.3 509.2 73.0Q509.6 72.6 510.1 72.5Q510.7 72.4 511.2 72.4L511.2 72.4Q511.5 72.4 511.9 72.4Q512.3 72.5 512.7 72.8Q513.1 73.0 513.4 73.5Q513.6 73.9 513.6 74.7L513.6 74.7L513.6 79L512.6 79L512.6 78.1L512.5 78.1Q512.4 78.3 512.2 78.6Q511.9 78.8 511.5 79.0Q511.1 79.2 510.6 79.2ZM510.7 78.2L510.7 78.2Q511.3 78.2 511.7 78.0Q512.1 77.8 512.3 77.4Q512.6 77.0 512.6 76.6L512.6 76.6L512.6 75.7Q512.5 75.8 512.3 75.9Q512.1 75.9 511.8 76.0Q511.5 76.0 511.2 76.0Q511.0 76.1 510.8 76.1L510.8 76.1Q510.5 76.1 510.1 76.3Q509.8 76.4 509.6 76.6Q509.4 76.8 509.4 77.2L509.4 77.2Q509.4 77.5 509.6 77.8Q509.7 78.0 510.0 78.1Q510.4 78.2 510.7 78.2ZM516.5 79L515.5 79L515.5 72.4L516.5 72.4L516.5 73.5L516.6 73.5Q516.7 73.0 517.2 72.7Q517.7 72.4 518.3 72.4L518.3 72.4Q518.4 72.4 518.5 72.4Q518.7 72.4 518.8 72.4L518.8 72.4L518.8 73.4Q518.7 73.4 518.6 73.4Q518.4 73.4 518.2 73.4L518.2 73.4Q517.7 73.4 517.3 73.6Q516.9 73.8 516.7 74.1Q516.5 74.5 516.5 74.9L516.5 74.9L516.5 79ZM521.0 75.1L521.0 75.1L521.0 79L520.0 79L520.0 72.4L521.0 72.4L521.0 73.7Q521.3 73.0 521.7 72.7L521.7 72.7Q522.3 72.4 523.0 72.4L523.0 72.4Q523.7 72.4 524.2 72.6Q524.7 72.9 524.9 73.5Q525.2 74.0 525.2 74.8L525.2 74.8L525.2 79L524.2 79L524.2 74.9Q524.2 74.2 523.8 73.7Q523.4 73.3 522.7 73.3L522.7 73.3Q522.2 73.3 521.8 73.5Q521.5 73.7 521.3 74.1Q521.0 74.5 521.0 75.1ZM529.8 79.1L529.8 79.1Q528.9 79.1 528.2 78.7Q527.5 78.3 527.1 77.5Q526.8 76.8 526.8 75.8Q526.8 74.8 527.1 74.0Q527.5 73.2 528.1 72.8Q528.8 72.4 529.7 72.4L529.7 72.4Q530.2 72.4 530.7 72.5Q531.2 72.7 531.7 73.1Q532.1 73.5 532.3 74.1Q532.6 74.7 532.6 75.6L532.6 75.6L532.6 76.1L527.8 76.1Q527.8 76.7 528.1 77.2L528.1 77.2Q528.3 77.7 528.8 77.9Q529.2 78.2 529.8 78.2L529.8 78.2Q530.2 78.2 530.5 78.1Q530.9 78.0 531.1 77.8Q531.3 77.5 531.4 77.2L531.4 77.2L532.5 77.5Q532.3 78.0 531.9 78.3Q531.6 78.7 531.0 78.9Q530.5 79.1 529.8 79.1ZM527.8 75.2L527.8 75.2L531.5 75.2Q531.4 74.7 531.3 74.4L531.3 74.4Q531.1 73.9 530.7 73.6Q530.3 73.3 529.7 73.3Q529.1 73.3 528.7 73.6Q528.3 73.9 528.0 74.3L528.0 74.3Q527.9 74.7 527.8 75.2ZM536.5 79.1L536.5 79.1Q535.7 79.1 535.1 78.7Q534.5 78.3 534.1 77.5Q533.8 76.8 533.8 75.7L533.8 75.7Q533.8 74.7 534.1 73.9Q534.5 73.2 535.1 72.8Q535.7 72.4 536.5 72.4L536.5 72.4Q537.2 72.4 537.5 72.6Q537.9 72.8 538.1 73.1Q538.3 73.3 538.4 73.5L538.4 73.5L538.5 73.5L538.5 70.3L539.6 70.3L539.6 79L538.5 79L538.5 78.0L538.4 78.0Q538.3 78.2 538.1 78.4Q537.9 78.7 537.5 78.9Q537.2 79.1 536.5 79.1ZM536.7 78.2L536.7 78.2Q537.3 78.2 537.7 77.9Q538.1 77.6 538.3 77.0Q538.5 76.5 538.5 75.7L538.5 75.7Q538.5 75.0 538.3 74.5Q538.1 73.9 537.7 73.6Q537.3 73.3 536.7 73.3L536.7 73.3Q536.1 73.3 535.6 73.6Q535.2 74.0 535.0 74.5Q534.8 75.1 534.8 75.7L534.8 75.7Q534.8 76.4 535.0 77.0Q535.2 77.5 535.7 77.9Q536.1 78.2 536.7 78.2Z "/></g><mask id="satori_om-id-3"><rect x="675" y="29" width="77" height="53" fill="#fff"/></mask><mask id="satori_om-id-3-0"><rect x="700" y="29" width="28" height="34" fill="#fff"/></mask><g  ><path fill="#34d399" d="M700 46.0L728 46.0L728 49.3L700 49.3L700 46.0Z "/></g><mask id="satori_om-id-3-1"><rect x="675" y="67" width="77" height="15" fill="#fff"/></mask><g  ><path fill="rgba(170,165,210,0.7)" d="M679.6 79.1L679.6 79.1Q678.5 79.1 677.6 78.6Q676.7 78.0 676.2 77.0Q675.7 76.0 675.7 74.6L675.7 74.6Q675.7 73.3 676.2 72.2Q676.7 71.2 677.6 70.7Q678.5 70.2 679.6 70.2L679.6 70.2Q680.3 70.2 680.8 70.3Q681.4 70.5 681.9 70.9Q682.4 71.3 682.7 71.8Q683.0 72.3 683.1 73.0L683.1 73.0L682.0 73.0Q681.9 72.6 681.7 72.2Q681.5 71.9 681.1 71.7Q680.8 71.4 680.4 71.3Q680.0 71.2 679.6 71.2L679.6 71.2Q678.8 71.2 678.2 71.6Q677.5 72.0 677.2 72.8Q676.8 73.5 676.8 74.6L676.8 74.6Q676.8 75.8 677.2 76.5Q677.5 77.3 678.2 77.7Q678.8 78.1 679.6 78.1L679.6 78.1Q680.0 78.1 680.4 78.0Q680.8 77.8 681.1 77.6Q681.5 77.4 681.7 77.0Q681.9 76.7 682.0 76.3L682.0 76.3L683.1 76.3Q683.0 76.9 682.7 77.4Q682.4 78.0 681.9 78.3Q681.4 78.7 680.8 78.9Q680.3 79.1 679.6 79.1ZM687.4 79.1L687.4 79.1Q686.5 79.1 685.8 78.7Q685.1 78.3 684.8 77.5Q684.4 76.8 684.4 75.8L684.4 75.8Q684.4 74.7 684.8 74.0Q685.1 73.2 685.8 72.8Q686.5 72.4 687.4 72.4L687.4 72.4Q688.3 72.4 688.9 72.8Q689.6 73.2 690.0 74.0Q690.4 74.7 690.4 75.8L690.4 75.8Q690.4 76.8 690.0 77.5Q689.6 78.3 688.9 78.7Q688.3 79.1 687.4 79.1ZM687.4 78.2L687.4 78.2Q688.0 78.2 688.4 77.9Q688.9 77.5 689.1 77.0Q689.3 76.4 689.3 75.8L689.3 75.8Q689.3 75.1 689.1 74.6Q688.9 74.0 688.4 73.7Q688.0 73.3 687.4 73.3L687.4 73.3Q686.7 73.3 686.3 73.7Q685.9 74.0 685.7 74.6Q685.4 75.1 685.4 75.8L685.4 75.8Q685.4 76.4 685.7 77.0Q685.9 77.5 686.3 77.9Q686.7 78.2 687.4 78.2ZM692.9 75.1L692.9 75.1L692.9 79L691.9 79L691.9 72.4L692.9 72.4L692.9 73.7Q693.2 73.0 693.6 72.7L693.6 72.7Q694.2 72.4 694.9 72.4L694.9 72.4Q695.6 72.4 696.1 72.6Q696.6 72.9 696.8 73.5Q697.1 74.0 697.1 74.8L697.1 74.8L697.1 79L696.1 79L696.1 74.9Q696.1 74.2 695.7 73.7Q695.3 73.3 694.6 73.3L694.6 73.3Q694.1 73.3 693.8 73.5Q693.4 73.7 693.2 74.1Q692.9 74.5 692.9 75.1ZM700.2 72.4L701.6 72.4L701.6 73.4L700.2 73.4L700.2 77.3Q700.2 77.7 700.4 77.9Q700.6 78.1 701.0 78.1L701.0 78.1Q701.1 78.1 701.2 78.1Q701.4 78.1 701.5 78.1L701.5 78.1L701.7 79.0Q701.6 79.0 701.4 79.1Q701.2 79.1 701.0 79.1L701.0 79.1Q700.1 79.1 699.6 78.6Q699.2 78.2 699.2 77.4L699.2 77.4L699.2 73.4L698.2 73.4L698.2 72.4L699.2 72.4L699.2 70.9L700.2 70.9L700.2 72.4ZM704.0 79L702.9 79L702.9 72.4L703.9 72.4L703.9 73.5L704.0 73.5Q704.2 73.0 704.6 72.7Q705.1 72.4 705.7 72.4L705.7 72.4Q705.8 72.4 706.0 72.4Q706.1 72.4 706.2 72.4L706.2 72.4L706.2 73.4Q706.2 73.4 706.0 73.4Q705.8 73.4 705.6 73.4L705.6 73.4Q705.1 73.4 704.8 73.6Q704.4 73.8 704.2 74.1Q704.0 74.5 704.0 74.9L704.0 74.9L704.0 79ZM708.5 79L707.4 79L707.4 72.4L708.5 72.4L708.5 79ZM708.0 71.4L708.0 71.4Q707.7 71.4 707.4 71.2Q707.2 71.0 707.2 70.7L707.2 70.7Q707.2 70.4 707.4 70.2Q707.7 70.0 708.0 70.0L708.0 70.0Q708.3 70.0 708.5 70.2Q708.7 70.4 708.7 70.7L708.7 70.7Q708.7 71.0 708.5 71.2Q708.3 71.4 708.0 71.4ZM713.4 79.1L713.4 79.1Q712.7 79.1 712.4 78.9Q712.0 78.7 711.8 78.4Q711.6 78.2 711.5 78.0L711.5 78.0L711.3 78.0L711.3 79L710.3 79L710.3 70.3L711.4 70.3L711.4 73.5L711.5 73.5Q711.6 73.3 711.8 73.1Q712.0 72.8 712.3 72.6Q712.7 72.4 713.4 72.4L713.4 72.4Q714.2 72.4 714.8 72.8Q715.4 73.2 715.8 73.9Q716.1 74.7 716.1 75.7L716.1 75.7Q716.1 76.8 715.8 77.5Q715.4 78.3 714.8 78.7Q714.2 79.1 713.4 79.1ZM713.2 78.2L713.2 78.2Q713.8 78.2 714.2 77.9Q714.7 77.5 714.9 77.0Q715.1 76.4 715.1 75.7L715.1 75.7Q715.1 75.1 714.9 74.5Q714.7 74.0 714.2 73.6Q713.8 73.3 713.2 73.3L713.2 73.3Q712.6 73.3 712.2 73.6Q711.8 73.9 711.6 74.5Q711.4 75.0 711.4 75.7L711.4 75.7Q711.4 76.5 711.6 77.0Q711.8 77.6 712.2 77.9Q712.6 78.2 713.2 78.2ZM719.9 79.1L719.9 79.1Q719.2 79.1 718.7 78.8Q718.2 78.5 718.0 78.0Q717.7 77.4 717.7 76.6L717.7 76.6L717.7 72.4L718.7 72.4L718.7 76.5Q718.7 77.3 719.1 77.7Q719.5 78.1 720.2 78.1L720.2 78.1Q720.7 78.1 721.1 77.9Q721.4 77.7 721.6 77.3Q721.9 76.9 721.9 76.4L721.9 76.4L721.9 72.4L722.9 72.4L722.9 79L721.9 79L721.9 77.8Q721.6 78.4 721.2 78.7L721.2 78.7Q720.6 79.1 719.9 79.1ZM726 72.4L727.3 72.4L727.3 73.4L726 73.4L726 77.3Q726 77.7 726.2 77.9Q726.4 78.1 726.8 78.1L726.8 78.1Q726.9 78.1 727.0 78.1Q727.2 78.1 727.3 78.1L727.3 78.1L727.5 79.0Q727.4 79.0 727.2 79.1Q726.9 79.1 726.7 79.1L726.7 79.1Q725.9 79.1 725.4 78.6Q724.9 78.2 724.9 77.4L724.9 77.4L724.9 73.4L724.0 73.4L724.0 72.4L724.9 72.4L724.9 70.9L726 70.9L726 72.4ZM729.8 79L728.7 79L728.7 72.4L729.8 72.4L729.8 79ZM729.2 71.4L729.2 71.4Q728.9 71.4 728.7 71.2Q728.5 71.0 728.5 70.7L728.5 70.7Q728.5 70.4 728.7 70.2Q728.9 70.0 729.2 70.0L729.2 70.0Q729.5 70.0 729.8 70.2Q730.0 70.4 730.0 70.7L730.0 70.7Q730.0 71.0 729.8 71.2Q729.5 71.4 729.2 71.4ZM734.3 79.1L734.3 79.1Q733.4 79.1 732.7 78.7Q732.0 78.3 731.7 77.5Q731.3 76.8 731.3 75.8L731.3 75.8Q731.3 74.7 731.7 74.0Q732.0 73.2 732.7 72.8Q733.4 72.4 734.3 72.4L734.3 72.4Q735.2 72.4 735.8 72.8Q736.5 73.2 736.9 74.0Q737.3 74.7 737.3 75.8L737.3 75.8Q737.3 76.8 736.9 77.5Q736.5 78.3 735.8 78.7Q735.2 79.1 734.3 79.1ZM734.3 78.2L734.3 78.2Q734.9 78.2 735.4 77.9Q735.8 77.5 736.0 77.0Q736.2 76.4 736.2 75.8L736.2 75.8Q736.2 75.1 736.0 74.6Q735.8 74.0 735.4 73.7Q734.9 73.3 734.3 73.3L734.3 73.3Q733.6 73.3 733.2 73.7Q732.8 74.0 732.6 74.6Q732.4 75.1 732.4 75.8L732.4 75.8Q732.4 76.4 732.6 77.0Q732.8 77.5 733.2 77.9Q733.6 78.2 734.3 78.2ZM739.9 75.1L739.9 75.1L739.9 79L738.8 79L738.8 72.4L739.8 72.4L739.8 73.7Q740.1 73.0 740.5 72.7L740.5 72.7Q741.1 72.4 741.8 72.4L741.8 72.4Q742.5 72.4 743.0 72.6Q743.5 72.9 743.8 73.5Q744.0 74.0 744.0 74.8L744.0 74.8L744.0 79L743.0 79L743.0 74.9Q743.0 74.2 742.6 73.7Q742.2 73.3 741.5 73.3L741.5 73.3Q741.0 73.3 740.7 73.5Q740.3 73.7 740.1 74.1Q739.9 74.5 739.9 75.1ZM748.1 79.1L748.1 79.1Q747.4 79.1 746.9 78.9Q746.4 78.7 746.1 78.4Q745.7 78.0 745.6 77.4L745.6 77.4L746.6 77.2Q746.7 77.7 747.1 78.0Q747.5 78.2 748.1 78.2L748.1 78.2Q748.8 78.2 749.2 77.9Q749.6 77.6 749.6 77.2L749.6 77.2Q749.6 76.9 749.4 76.7Q749.1 76.4 748.6 76.3L748.6 76.3L747.6 76.1Q746.7 75.9 746.2 75.4Q745.8 75.0 745.8 74.3L745.8 74.3Q745.8 73.7 746.1 73.3Q746.4 72.9 747.0 72.6Q747.5 72.4 748.2 72.4L748.2 72.4Q748.9 72.4 749.4 72.6Q749.8 72.8 750.1 73.1Q750.4 73.5 750.6 73.9L750.6 73.9L749.6 74.2Q749.5 73.8 749.2 73.6Q748.9 73.3 748.2 73.3L748.2 73.3Q747.6 73.3 747.2 73.5Q746.9 73.8 746.9 74.2L746.9 74.2Q746.9 74.6 747.1 74.8Q747.4 75.0 748.0 75.2L748.0 75.2L749.0 75.4Q749.8 75.6 750.3 76.0Q750.7 76.5 750.7 77.2L750.7 77.2Q750.7 77.7 750.4 78.2Q750.0 78.6 749.5 78.9Q748.9 79.1 748.1 79.1Z "/></g></svg>