<!-- Generated by readme-aura https://github.com/collectioneur/readme-aura -->
<svg width="860" height="160" viewBox="0 0 860 160" xmlns="http://www.w3.org/2000/svg"><defs><clipPath id="satori_bc-id"><path x="0" y="0" width="860" height="160" d="M16,0 h828 a16,16 0 0 1 16,16 v128 a16,16 0 0 1 -16,16 h-828 a16,16 0 0 1 -16,-16 v-128 a16,16 0 0 1 16,-16"/></clipPath></defs><mask id="satori_om-id"><rect x="1" y="1" width="858" height="158" fill="#fff"/><path width="860" height="160" fill="none" stroke="#000" stroke-width="2" d="M4.686,4.686 A16,16 0 0 1 16,0 h828 a16,16 0 0 1 16,16 v128 a16,16 0 0 1 -16,16 h-828 a16,16 0 0 1 -16,-16 v-128 A16,16 0 0 1 4.686,4.686"/></mask><path x="0" y="0" width="860" height="160" fill="#07070e" d="M16,0 h828 a16,16 0 0 1 16,16 v128 a16,16 0 0 1 -16,16 h-828 a16,16 0 0 1 -16,-16 v-128 a16,16 0 0 1 16,-16"/><path width="860" height="160" clip-path="url(#satori_bc-id)" fill="none" stroke="rgba(90,60,200,0.13)" stroke-width="2" d="M4.686,4.686 A16,16 0 0 1 16,0 h828 a16,16 0 0 1 16,16 v128 a16,16 0 0 1 -16,16 h-828 a16,16 0 0 1 -16,-16 v-128 A16,16 0 0 1 4.686,4.686"/><mask id="satori_om-id-0"><rect x="41" y="49" width="778" height="23" fill="#fff"/></mask><mask id="satori_om-id-0-0"><rect x="41" y="54" width="120" height="13" fill="#fff"/></mask><g  ><path fill="rgba(160,150,210,0.6)" d="M46.8 65L41.7 65L41.7 57.0L43.4 57.0L43.4 63.6L46.8 63.6L46.8 65ZM49.6 65.1L49.6 65.1Q49.0 65.1 48.6 64.9Q48.1 64.7 47.8 64.3Q47.6 63.9 47.6 63.3L47.6 63.3Q47.6 62.8 47.8 62.5Q48.0 62.1 48.3 61.9Q48.6 61.7 49.0 61.6Q49.4 61.5 49.9 61.5L49.9 61.5Q50.4 61.4 50.7 61.4Q51.0 61.3 51.2 61.2Q51.3 61.1 51.3 60.9L51.3 60.9L51.3 60.9Q51.3 60.7 51.2 60.5Q51.1 60.3 50.9 60.2Q50.7 60.1 50.4 60.1L50.4 60.1Q50.1 60.1 49.8 60.2Q49.6 60.3 49.4 60.5Q49.3 60.6 49.2 60.8L49.2 60.8L47.8 60.6Q47.9 60.0 48.3 59.7Q48.6 59.3 49.2 59.1Q49.7 58.9 50.4 58.9L50.4 58.9Q50.9 58.9 51.3 59.0Q51.8 59.2 52.1 59.4Q52.5 59.6 52.7 60.0Q52.9 60.4 52.9 61.0L52.9 61.0L52.9 65L51.4 65L51.4 64.2L51.3 64.2Q51.2 64.4 51.0 64.7Q50.7 64.9 50.4 65.0Q50.0 65.1 49.6 65.1ZM50.0 64.0L50.0 64.0Q50.4 64.0 50.7 63.8Q51.0 63.7 51.2 63.4Q51.3 63.2 51.3 62.9L51.3 62.9L51.3 62.2Q51.2 62.3 51.1 62.3Q51.0 62.3 50.8 62.4Q50.6 62.4 50.4 62.4Q50.3 62.5 50.1 62.5L50.1 62.5Q49.8 62.5 49.6 62.6Q49.4 62.7 49.3 62.9Q49.1 63.0 49.1 63.3L49.1 63.3Q49.1 63.5 49.3 63.7Q49.4 63.8 49.6 63.9Q49.8 64.0 50.0 64.0ZM55.9 61.5L55.9 61.5L55.9 65L54.3 65L54.3 59.0L55.8 59.0L55.8 60.2Q56.1 59.7 56.5 59.3L56.5 59.3Q56.9 58.9 57.7 58.9L57.7 58.9Q58.3 58.9 58.8 59.2Q59.3 59.5 59.5 60.0Q59.8 60.5 59.8 61.2L59.8 61.2L59.8 65L58.2 65L58.2 61.5Q58.2 60.9 57.9 60.6Q57.6 60.3 57.1 60.3L57.1 60.3Q56.7 60.3 56.5 60.4Q56.2 60.6 56.1 60.8Q55.9 61.1 55.9 61.5ZM63.8 67.4L63.8 67.4Q63.1 67.4 62.5 67.2Q61.9 67.0 61.6 66.7Q61.2 66.3 61.1 65.9L61.1 65.9L62.5 65.5Q62.6 65.7 62.7 65.8Q62.9 66.0 63.2 66.1Q63.4 66.2 63.8 66.2L63.8 66.2Q64.4 66.2 64.8 65.9Q65.1 65.6 65.1 65.0L65.1 65.0L65.1 63.9L65.0 63.9Q64.9 64.2 64.7 64.4Q64.5 64.6 64.2 64.8Q63.8 64.9 63.3 64.9L63.3 64.9Q62.7 64.9 62.1 64.6Q61.5 64.3 61.2 63.6Q60.9 63.0 60.9 62.0L60.9 62.0Q60.9 61.0 61.2 60.3Q61.6 59.6 62.1 59.3Q62.7 58.9 63.3 58.9L63.3 58.9Q63.8 58.9 64.2 59.1Q64.5 59.3 64.7 59.5Q65.0 59.8 65.1 60.0L65.1 60.0L65.1 60.0L65.1 59.0L66.7 59.0L66.7 65.0Q66.7 65.8 66.3 66.3Q66.0 66.8 65.3 67.1Q64.7 67.4 63.8 67.4ZM63.8 63.7L63.8 63.7Q64.3 63.7 64.5 63.5Q64.8 63.3 65.0 62.9Q65.1 62.5 65.1 62.0L65.1 62.0Q65.1 61.4 65.0 61.0Q64.8 60.6 64.5 60.4Q64.3 60.2 63.8 60.2L63.8 60.2Q63.4 60.2 63.1 60.4Q62.8 60.7 62.7 61.1Q62.5 61.5 62.5 62.0L62.5 62.0Q62.5 62.5 62.7 62.9Q62.8 63.3 63.1 63.5Q63.4 63.7 63.8 63.7ZM70.2 65.1L70.2 65.1Q69.5 65.1 69.1 64.8Q68.6 64.5 68.3 64.0Q68.1 63.5 68.1 62.8L68.1 62.8L68.1 59.0L69.7 59.0L69.7 62.5Q69.7 63.1 70.0 63.4Q70.3 63.7 70.8 63.7L70.8 63.7Q71.1 63.7 71.4 63.6Q71.7 63.4 71.8 63.1Q72.0 62.9 72.0 62.5L72.0 62.5L72.0 59.0L73.6 59.0L73.6 65L72.0 65L72.0 63.7Q71.8 64.3 71.4 64.7L71.4 64.7Q70.9 65.1 70.2 65.1ZM76.6 65.1L76.6 65.1Q76.0 65.1 75.6 64.9Q75.1 64.7 74.9 64.3Q74.6 63.9 74.6 63.3L74.6 63.3Q74.6 62.8 74.8 62.5Q75.0 62.1 75.3 61.9Q75.6 61.7 76.0 61.6Q76.4 61.5 76.9 61.5L76.9 61.5Q77.4 61.4 77.7 61.4Q78.0 61.3 78.2 61.2Q78.3 61.1 78.3 60.9L78.3 60.9L78.3 60.9Q78.3 60.7 78.2 60.5Q78.1 60.3 77.9 60.2Q77.7 60.1 77.4 60.1L77.4 60.1Q77.1 60.1 76.9 60.2Q76.6 60.3 76.5 60.5Q76.3 60.6 76.3 60.8L76.3 60.8L74.8 60.6Q74.9 60.0 75.3 59.7Q75.7 59.3 76.2 59.1Q76.7 58.9 77.4 58.9L77.4 58.9Q77.9 58.9 78.3 59.0Q78.8 59.2 79.2 59.4Q79.5 59.6 79.7 60.0Q80.0 60.4 80.0 61.0L80.0 61.0L80.0 65L78.4 65L78.4 64.2L78.4 64.2Q78.2 64.4 78.0 64.7Q77.7 64.9 77.4 65.0Q77.1 65.1 76.6 65.1ZM77.1 64.0L77.1 64.0Q77.5 64.0 77.7 63.8Q78.0 63.7 78.2 63.4Q78.4 63.2 78.4 62.9L78.4 62.9L78.4 62.2Q78.3 62.3 78.1 62.3Q78.0 62.3 77.8 62.4Q77.6 62.4 77.5 62.4Q77.3 62.5 77.2 62.5L77.2 62.5Q76.9 62.5 76.6 62.6Q76.4 62.7 76.3 62.9Q76.2 63.0 76.2 63.3L76.2 63.3Q76.2 63.5 76.3 63.7Q76.4 63.8 76.6 63.9Q76.8 64.0 77.1 64.0ZM84.0 67.4L84.0 67.4Q83.2 67.4 82.7 67.2Q82.1 67.0 81.8 66.7Q81.4 66.3 81.3 65.9L81.3 65.9L82.7 65.5Q82.8 65.7 82.9 65.8Q83.1 66.0 83.3 66.1Q83.6 66.2 84.0 66.2L84.0 66.2Q84.6 66.2 85.0 65.9Q85.3 65.6 85.3 65.0L85.3 65.0L85.3 63.9L85.2 63.9Q85.1 64.2 84.9 64.4Q84.7 64.6 84.3 64.8Q84.0 64.9 83.5 64.9L83.5 64.9Q82.8 64.9 82.3 64.6Q81.7 64.3 81.4 63.6Q81.1 63.0 81.1 62.0L81.1 62.0Q81.1 61.0 81.4 60.3Q81.7 59.6 82.3 59.3Q82.9 58.9 83.5 58.9L83.5 58.9Q84.0 58.9 84.4 59.1Q84.7 59.3 84.9 59.5Q85.1 59.8 85.2 60.0L85.2 60.0L85.3 60.0L85.3 59.0L86.9 59.0L86.9 65.0Q86.9 65.8 86.5 66.3Q86.2 66.8 85.5 67.1Q84.8 67.4 84.0 67.4ZM84.0 63.7L84.0 63.7Q84.4 63.7 84.7 63.5Q85.0 63.3 85.2 62.9Q85.3 62.5 85.3 62.0L85.3 62.0Q85.3 61.4 85.2 61.0Q85.0 60.6 84.7 60.4Q84.4 60.2 84.0 60.2L84.0 60.2Q83.6 60.2 83.3 60.4Q83.0 60.7 82.9 61.1Q82.7 61.5 82.7 62.0L82.7 62.0Q82.7 62.5 82.9 62.9Q83.0 63.3 83.3 63.5Q83.6 63.7 84.0 63.7ZM91.0 65.1L91.0 65.1Q90.1 65.1 89.4 64.7Q88.7 64.4 88.4 63.7Q88.0 63.0 88.0 62.0L88.0 62.0Q88.0 61.1 88.4 60.4Q88.7 59.7 89.4 59.3Q90.0 58.9 90.9 58.9L90.9 58.9Q91.5 58.9 92.0 59.1Q92.5 59.3 92.9 59.7Q93.3 60.1 93.5 60.6Q93.7 61.2 93.7 62.0L93.7 62.0L93.7 62.4L89.6 62.4Q89.6 62.9 89.8 63.2L89.8 63.2Q90.0 63.5 90.3 63.7Q90.6 63.9 91.0 63.9L91.0 63.9Q91.3 63.9 91.5 63.8Q91.8 63.7 91.9 63.6Q92.1 63.4 92.2 63.2L92.2 63.2L93.6 63.5Q93.5 64.0 93.1 64.3Q92.8 64.7 92.2 64.9Q91.7 65.1 91.0 65.1ZM89.6 61.4L89.6 61.4L92.2 61.4Q92.1 61.1 92.0 60.9L92.0 60.9Q91.9 60.5 91.6 60.3Q91.3 60.1 90.9 60.1L90.9 60.1Q90.5 60.1 90.2 60.3Q89.9 60.5 89.8 60.8L89.8 60.8Q89.7 61.1 89.6 61.4ZM97.2 65.1L97.2 65.1Q96.5 65.1 95.9 64.9Q95.4 64.7 95.0 64.3Q94.7 63.9 94.6 63.4L94.6 63.4L96.1 63.1Q96.2 63.5 96.5 63.7Q96.8 63.9 97.3 63.9L97.3 63.9Q97.7 63.9 98.0 63.8Q98.3 63.6 98.3 63.3L98.3 63.3Q98.3 63.1 98.1 62.9Q97.9 62.8 97.5 62.7L97.5 62.7L96.4 62.5Q95.6 62.3 95.1 61.9Q94.7 61.5 94.7 60.8L94.7 60.8Q94.7 60.2 95.0 59.8Q95.4 59.4 95.9 59.1Q96.5 58.9 97.2 58.9L97.2 58.9Q97.9 58.9 98.5 59.1Q99.0 59.3 99.3 59.7Q99.6 60.0 99.7 60.5L99.7 60.5L98.3 60.8Q98.2 60.5 98.0 60.3Q97.7 60.1 97.3 60.1L97.3 60.1Q96.9 60.1 96.6 60.2Q96.3 60.4 96.3 60.7L96.3 60.7Q96.3 60.9 96.5 61.1Q96.7 61.2 97.1 61.3L97.1 61.3L98.2 61.5Q99.1 61.7 99.5 62.1Q99.9 62.5 99.9 63.1L99.9 63.1Q99.9 63.7 99.6 64.2Q99.2 64.6 98.6 64.9Q98.0 65.1 97.2 65.1Z "/></g><mask id="satori_om-id-0-1"><rect x="173" y="49" width="427" height="23" fill="#fff"/></mask><defs><clipPath id="satori_bc-id-0-1-0"><path x="173" y="49" width="68" height="23" d="M184.5,49 h45 a11.5,11.5 0 0 1 11.5,11.5 v0 a11.5,11.5 0 0 1 -11.5,11.5 h-45 a11.5,11.5 0 0 1 -11.5,-11.5 v0 a11.5,11.5 0 0 1 11.5,-11.5"/></clipPath></defs><mask id="satori_om-id-0-1-0"><rect x="174" y="50" width="66" height="21" fill="#fff"/><path width="68" height="23" fill="none" stroke="#000" stroke-width="2" d="M176.368,52.368 A11.5,11.5 0 0 1 184.5,49 h45 a11.5,11.5 0 0 1 11.5,11.5 v0 a11.5,11.5 0 0 1 -11.5,11.5 h-45 a11.5,11.5 0 0 1 -11.5,-11.5 v0 A11.5,11.5 0 0 1 176.368,52.368"/></mask><path x="173" y="49" width="68" height="23" fill="#facc1518" d="M184.5,49 h45 a11.5,11.5 0 0 1 11.5,11.5 v0 a11.5,11.5 0 0 1 -11.5,11.5 h-45 a11.5,11.5 0 0 1 -11.5,-11.5 v0 a11.5,11.5 0 0 1 11.5,-11.5"/><path width="68" height="23" clip-path="url(#satori_bc-id-0-1-0)" fill="none" stroke="#facc1540" stroke-width="2" d="M176.368,52.368 A11.5,11.5 0 0 1 184.5,49 h45 a11.5,11.5 0 0 1 11.5,11.5 v0 a11.5,11.5 0 0 1 -11.5,11.5 h-45 a11.5,11.5 0 0 1 -11.5,-11.5 v0 A11.5,11.5 0 0 1 176.368,52.368"/><g  ><path fill="#facc15" d="M188.6 65L186.8 65L186.8 56.3L190.2 56.3Q191.2 56.3 191.9 56.6Q192.6 57.0 193.0 57.7Q193.3 58.4 193.3 59.2L193.3 59.2Q193.3 60.1 192.9 60.7Q192.6 61.4 191.9 61.8Q191.2 62.1 190.2 62.1L190.2 62.1L188.6 62.1L188.6 65ZM188.6 57.7L188.6 60.7L189.9 60.7Q190.4 60.7 190.8 60.5Q191.1 60.3 191.3 60.0Q191.5 59.7 191.5 59.2Q191.5 58.8 191.3 58.4Q191.1 58.1 190.8 57.9Q190.4 57.7 189.9 57.7L189.9 57.7L188.6 57.7ZM194.5 67.3L194.5 67.3L194.9 66.0L195.1 66.0Q195.5 66.1 195.7 66.1Q196.0 66.1 196.2 65.9Q196.3 65.7 196.4 65.4L196.4 65.4L196.4 65.0L194.0 58.4L195.8 58.4L196.9 61.8Q197.1 62.5 197.3 63.1L197.3 63.1Q197.3 63.4 197.3 63.6L197.3 63.6Q197.4 63.4 197.4 63.1L197.4 63.1Q197.6 62.5 197.8 61.8L197.8 61.8L199.0 58.4L200.8 58.4L198.0 65.8Q197.8 66.3 197.5 66.7Q197.2 67.1 196.7 67.3Q196.3 67.5 195.6 67.5L195.6 67.5Q195.3 67.5 195.0 67.4Q194.7 67.4 194.5 67.3ZM203.8 58.4L205.0 58.4L205.0 59.8L203.8 59.8L203.8 63.1Q203.8 63.4 203.9 63.5Q204.1 63.7 204.4 63.7L204.4 63.7Q204.5 63.7 204.7 63.7Q204.8 63.6 204.9 63.6L204.9 63.6L205.2 64.9Q204.9 65.0 204.6 65.1Q204.3 65.1 204.0 65.1L204.0 65.1Q203.1 65.1 202.5 64.6Q202.0 64.1 202.0 63.2L202.0 63.2L202.0 59.8L201.1 59.8L201.1 58.4L202.0 58.4L202.0 56.9L203.8 56.9L203.8 58.4ZM207.9 61.2L207.9 61.2L207.9 65L206.1 65L206.1 56.3L207.9 56.3L207.9 59.7Q208.1 59.2 208.5 58.8L208.5 58.8Q209.0 58.4 209.9 58.4L209.9 58.4Q210.5 58.4 211.1 58.7Q211.6 59.0 211.8 59.5Q212.1 60.1 212.1 60.8L212.1 60.8L212.1 65L210.4 65L210.4 61.1Q210.4 60.5 210.0 60.2Q209.7 59.8 209.2 59.8L209.2 59.8Q208.8 59.8 208.5 60.0Q208.2 60.2 208.1 60.5Q207.9 60.8 207.9 61.2ZM216.5 65.1L216.5 65.1Q215.6 65.1 214.8 64.7Q214.1 64.3 213.7 63.5Q213.3 62.8 213.3 61.8L213.3 61.8Q213.3 60.7 213.7 60.0Q214.1 59.2 214.8 58.8Q215.6 58.4 216.5 58.4L216.5 58.4Q217.5 58.4 218.3 58.8Q219.0 59.2 219.4 60.0Q219.8 60.7 219.8 61.8L219.8 61.8Q219.8 62.8 219.4 63.5Q219.0 64.3 218.3 64.7Q217.5 65.1 216.5 65.1ZM216.5 63.7L216.5 63.7Q217.0 63.7 217.3 63.5Q217.6 63.2 217.8 62.8Q218.0 62.3 218.0 61.7L218.0 61.7Q218.0 61.2 217.8 60.7Q217.6 60.3 217.3 60.0Q217.0 59.8 216.5 59.8L216.5 59.8Q216.1 59.8 215.8 60.0Q215.4 60.3 215.3 60.7Q215.1 61.2 215.1 61.7L215.1 61.7Q215.1 62.3 215.3 62.8Q215.4 63.2 215.8 63.5Q216.1 63.7 216.5 63.7ZM222.7 61.2L222.7 61.2L222.7 65L221.0 65L221.0 58.4L222.6 58.4L222.7 59.8Q222.9 59.2 223.3 58.8L223.3 58.8Q223.9 58.4 224.7 58.4L224.7 58.4Q225.4 58.4 225.9 58.7Q226.4 59.0 226.7 59.5Q226.9 60.1 226.9 60.8L226.9 60.8L226.9 65L225.2 65L225.2 61.1Q225.2 60.5 224.9 60.2Q224.6 59.8 224.0 59.8L224.0 59.8Q223.6 59.8 223.3 60.0Q223.1 60.2 222.9 60.5Q222.7 60.8 222.7 61.2Z "/></g><defs><clipPath id="satori_bc-id-0-1-1"><path x="249" y="49" width="90" height="23" d="M260.5,49 h67 a11.5,11.5 0 0 1 11.5,11.5 v0 a11.5,11.5 0 0 1 -11.5,11.5 h-67 a11.5,11.5 0 0 1 -11.5,-11.5 v0 a11.5,11.5 0 0 1 11.5,-11.5"/></clipPath></defs><mask id="satori_om-id-0-1-1"><rect x="250" y="50" width="88" height="21" fill="#fff"/><path width="90" height="23" fill="none" stroke="#000" stroke-width="2" d="M252.368,52.368 A11.5,11.5 0 0 1 260.5,49 h67 a11.5,11.5 0 0 1 11.5,11.5 v0 a11.5,11.5 0 0 1 -11.5,11.5 h-67 a11.5,11.5 0 0 1 -11.5,-11.5 v0 A11.5,11.5 0 0 1 252.368,52.368"/></mask><path x="249" y="49" width="90" height="23" fill="#f59e0b18" d="M260.5,49 h67 a11.5,11.5 0 0 1 11.5,11.5 v0 a11.5,11.5 0 0 1 -11.5,11.5 h-67 a11.5,11.5 0 0 1 -11.5,-11.5 v0 a11.5,11.5 0 0 1 11.5,-11.5"/><path width="90" height="23" clip-path="url(#satori_bc-id-0-1-1)" fill="none" stroke="#f59e0b40" stroke-width="2" d="M252.368,52.368 A11.5,11.5 0 0 1 260.5,49 h67 a11.5,11.5 0 0 1 11.5,11.5 v0 a11.5,11.5 0 0 1 -11.5,11.5 h-67 a11.5,11.5 0 0 1 -11.5,-11.5 v0 A11.5,11.5 0 0 1 252.368,52.368"/><g  ><path fill="#f59e0b" d="M265.3 65.1L265.3 65.1Q264.0 65.1 263.2 64.4Q262.4 63.7 262.4 62.4L262.4 62.4L262.4 61.9L264.2 61.9L264.2 62.4Q264.2 63.0 264.5 63.4Q264.8 63.7 265.3 63.7L265.3 63.7Q265.8 63.7 266.1 63.4Q266.5 63.0 266.5 62.4L266.5 62.4L266.5 56.3L268.2 56.3L268.2 62.4Q268.2 63.7 267.4 64.4Q266.7 65.1 265.3 65.1ZM271.6 65.1L271.6 65.1Q271.0 65.1 270.5 64.9Q270.0 64.7 269.7 64.3Q269.4 63.8 269.4 63.2L269.4 63.2Q269.4 62.6 269.6 62.3Q269.8 61.9 270.2 61.7Q270.5 61.4 271.0 61.3Q271.4 61.2 271.9 61.2L271.9 61.2Q272.5 61.1 272.8 61.0Q273.2 61.0 273.3 60.9Q273.5 60.8 273.5 60.6L273.5 60.6L273.5 60.5Q273.5 60.3 273.4 60.1Q273.2 59.9 273.0 59.8Q272.8 59.7 272.4 59.7L272.4 59.7Q272.1 59.7 271.9 59.8Q271.6 59.9 271.4 60.0Q271.3 60.2 271.2 60.4L271.2 60.4L269.6 60.2Q269.8 59.6 270.2 59.2Q270.6 58.8 271.1 58.6Q271.7 58.4 272.5 58.4L272.5 58.4Q273.0 58.4 273.5 58.5Q274.0 58.6 274.4 58.9Q274.8 59.1 275.0 59.6Q275.2 60.0 275.2 60.6L275.2 60.6L275.2 65L273.6 65L273.6 64.1L273.5 64.1Q273.3 64.4 273.1 64.6Q272.8 64.9 272.5 65.0Q272.1 65.1 271.6 65.1ZM272.1 63.9L272.1 63.9Q272.5 63.9 272.8 63.7Q273.1 63.6 273.3 63.3Q273.5 63.0 273.5 62.7L273.5 62.7L273.5 61.9Q273.4 62.0 273.3 62.1Q273.1 62.1 272.9 62.1Q272.7 62.2 272.5 62.2Q272.3 62.2 272.2 62.2L272.2 62.2Q271.9 62.3 271.6 62.4Q271.4 62.5 271.2 62.7Q271.1 62.8 271.1 63.1L271.1 63.1Q271.1 63.4 271.2 63.5Q271.4 63.7 271.6 63.8Q271.8 63.9 272.1 63.9ZM280.6 65L278.6 65L276.2 58.4L278.0 58.4L279.1 61.8Q279.3 62.5 279.5 63.1L279.5 63.1Q279.5 63.4 279.6 63.6L279.6 63.6Q279.7 63.4 279.7 63.1L279.7 63.1Q279.9 62.5 280.1 61.8L280.1 61.8L281.1 58.4L283.0 58.4L280.6 65ZM285.8 65.1L285.8 65.1Q285.1 65.1 284.6 64.9Q284.1 64.7 283.9 64.3Q283.6 63.8 283.6 63.2L283.6 63.2Q283.6 62.6 283.8 62.3Q284.0 61.9 284.3 61.7Q284.7 61.4 285.1 61.3Q285.6 61.2 286.0 61.2L286.0 61.2Q286.6 61.1 287.0 61.0Q287.3 61.0 287.5 60.9Q287.6 60.8 287.6 60.6L287.6 60.6L287.6 60.5Q287.6 60.3 287.5 60.1Q287.4 59.9 287.2 59.8Q286.9 59.7 286.6 59.7L286.6 59.7Q286.3 59.7 286.0 59.8Q285.8 59.9 285.6 60.0Q285.4 60.2 285.4 60.4L285.4 60.4L283.8 60.2Q283.9 59.6 284.3 59.2Q284.7 58.8 285.3 58.6Q285.9 58.4 286.6 58.4L286.6 58.4Q287.1 58.4 287.6 58.5Q288.1 58.6 288.5 58.9Q288.9 59.1 289.2 59.6Q289.4 60.0 289.4 60.6L289.4 60.6L289.4 65L287.7 65L287.7 64.1L287.7 64.1Q287.5 64.4 287.2 64.6Q287.0 64.9 286.6 65.0Q286.2 65.1 285.8 65.1ZM286.3 63.9L286.3 63.9Q286.7 63.9 287.0 63.7Q287.3 63.6 287.5 63.3Q287.6 63.0 287.6 62.7L287.6 62.7L287.6 61.9Q287.6 62.0 287.4 62.1Q287.3 62.1 287.1 62.1Q286.9 62.2 286.7 62.2Q286.5 62.2 286.3 62.2L286.3 62.2Q286.0 62.3 285.8 62.4Q285.5 62.5 285.4 62.7Q285.3 62.8 285.3 63.1L285.3 63.1Q285.3 63.4 285.4 63.5Q285.5 63.7 285.7 63.8Q286.0 63.9 286.3 63.9ZM294.1 65.1L294.1 65.1Q293.1 65.1 292.3 64.8Q291.5 64.5 291.1 63.9Q290.7 63.2 290.6 62.3L290.6 62.3L292.4 62.3Q292.4 62.7 292.6 63.0Q292.9 63.3 293.3 63.5Q293.6 63.6 294.1 63.6L294.1 63.6Q294.6 63.6 295.0 63.5Q295.3 63.3 295.5 63.1Q295.7 62.8 295.7 62.5L295.7 62.5Q295.7 62.2 295.5 62.0Q295.3 61.8 295.0 61.7Q294.7 61.5 294.2 61.4L294.2 61.4L293.2 61.2Q292.1 60.9 291.5 60.3Q290.9 59.7 290.9 58.8L290.9 58.8Q290.9 58.0 291.3 57.4Q291.7 56.8 292.5 56.5Q293.2 56.2 294.2 56.2L294.2 56.2Q295.1 56.2 295.8 56.5Q296.6 56.8 297.0 57.4Q297.4 58.0 297.4 58.8L297.4 58.8L295.7 58.8Q295.6 58.2 295.2 57.9Q294.8 57.7 294.1 57.7L294.1 57.7Q293.7 57.7 293.4 57.8Q293.0 57.9 292.9 58.1Q292.7 58.4 292.7 58.7L292.7 58.7Q292.7 59.0 292.9 59.2Q293.1 59.4 293.4 59.5Q293.7 59.7 294.1 59.8L294.1 59.8L294.9 60.0Q295.4 60.1 295.9 60.3Q296.4 60.5 296.8 60.8Q297.1 61.1 297.3 61.5Q297.5 62.0 297.5 62.5L297.5 62.5Q297.5 63.3 297.1 63.9Q296.7 64.5 295.9 64.8Q295.2 65.1 294.1 65.1ZM301.7 65.1L301.7 65.1Q300.7 65.1 300.0 64.7Q299.3 64.3 298.9 63.5Q298.5 62.8 298.5 61.8L298.5 61.8Q298.5 60.7 298.9 60.0Q299.3 59.2 300.0 58.8Q300.7 58.4 301.7 58.4L301.7 58.4Q302.3 58.4 302.8 58.5Q303.2 58.7 303.6 59.0Q304.0 59.2 304.3 59.6Q304.5 60.0 304.6 60.5L304.6 60.5L303.0 60.9Q302.9 60.6 302.8 60.4Q302.7 60.2 302.5 60.0Q302.4 59.9 302.2 59.8Q301.9 59.8 301.7 59.8L301.7 59.8Q301.2 59.8 300.9 60.0Q300.6 60.3 300.4 60.7Q300.3 61.2 300.3 61.7L300.3 61.7Q300.3 62.3 300.4 62.8Q300.6 63.2 300.9 63.5Q301.2 63.7 301.7 63.7L301.7 63.7Q301.9 63.7 302.2 63.7Q302.4 63.6 302.5 63.4Q302.7 63.3 302.8 63.1Q302.9 62.9 303.0 62.6L303.0 62.6L304.6 62.9Q304.5 63.4 304.3 63.8Q304.0 64.2 303.6 64.5Q303.3 64.8 302.8 65.0Q302.3 65.1 301.7 65.1ZM307.6 65L305.8 65L305.8 58.4L307.5 58.4L307.5 59.6L307.6 59.6Q307.8 59.0 308.2 58.7Q308.6 58.4 309.2 58.4L309.2 58.4Q309.3 58.4 309.5 58.4Q309.6 58.4 309.7 58.4L309.7 58.4L309.7 60.0Q309.6 59.9 309.4 59.9Q309.2 59.9 309.0 59.9L309.0 59.9Q308.6 59.9 308.2 60.1Q307.9 60.2 307.7 60.6Q307.6 60.9 307.6 61.3L307.6 61.3L307.6 65ZM312.5 65L310.7 65L310.7 58.4L312.5 58.4L312.5 65ZM311.6 57.6L311.6 57.6Q311.2 57.6 310.9 57.3Q310.6 57.1 310.6 56.7L310.6 56.7Q310.6 56.3 310.9 56.1Q311.2 55.8 311.6 55.8L311.6 55.8Q312.0 55.8 312.3 56.0Q312.5 56.3 312.5 56.7L312.5 56.7Q312.5 57.1 312.3 57.3Q312.0 57.6 311.6 57.6ZM315.7 67.4L313.9 67.4L313.9 58.4L315.7 58.4L315.7 59.6L315.8 59.6Q315.9 59.3 316.1 59.0Q316.3 58.7 316.7 58.6Q317.1 58.4 317.6 58.4L317.6 58.4Q318.4 58.4 319.0 58.7Q319.6 59.1 319.9 59.9Q320.3 60.6 320.3 61.7L320.3 61.7Q320.3 62.8 319.9 63.6Q319.6 64.3 319.0 64.7Q318.4 65.1 317.6 65.1L317.6 65.1Q317.1 65.1 316.7 64.9Q316.3 64.7 316.1 64.5Q315.9 64.2 315.8 64.0L315.8 64.0L315.7 64.0L315.7 67.4ZM317.1 63.7L317.1 63.7Q317.5 63.7 317.8 63.4Q318.2 63.2 318.3 62.8Q318.5 62.3 318.5 61.7L318.5 61.7Q318.5 61.2 318.3 60.7Q318.2 60.3 317.9 60.0Q317.5 59.8 317.1 59.8L317.1 59.8Q316.6 59.8 316.3 60.0Q316.0 60.3 315.8 60.7Q315.7 61.1 315.7 61.7L315.7 61.7Q315.7 62.3 315.8 62.8Q316 63.2 316.3 63.5Q316.6 63.7 317.1 63.7ZM323.5 58.4L324.8 58.4L324.8 59.8L323.5 59.8L323.5 63.1Q323.5 63.4 323.7 63.5Q323.8 63.7 324.1 63.7L324.1 63.7Q324.2 63.7 324.4 63.7Q324.6 63.6 324.7 63.6L324.7 63.6L324.9 64.9Q324.7 65.0 324.4 65.1Q324.1 65.1 323.8 65.1L323.8 65.1Q322.8 65.1 322.3 64.6Q321.8 64.1 321.8 63.2L321.8 63.2L321.8 59.8L320.9 59.8L320.9 58.4L321.8 58.4L321.8 56.9L323.5 56.9L323.5 58.4Z "/></g><defs><clipPath id="satori_bc-id-0-1-2"><path x="347" y="49" width="91" height="23" d="M358.5,49 h68 a11.5,11.5 0 0 1 11.5,11.5 v0 a11.5,11.5 0 0 1 -11.5,11.5 h-68 a11.5,11.5 0 0 1 -11.5,-11.5 v0 a11.5,11.5 0 0 1 11.5,-11.5"/></clipPath></defs><mask id="satori_om-id-0-1-2"><rect x="348" y="50" width="89" height="21" fill="#fff"/><path width="91" height="23" fill="none" stroke="#000" stroke-width="2" d="M350.368,52.368 A11.5,11.5 0 0 1 358.5,49 h68 a11.5,11.5 0 0 1 11.5,11.5 v0 a11.5,11.5 0 0 1 -11.5,11.5 h-68 a11.5,11.5 0 0 1 -11.5,-11.5 v0 A11.5,11.5 0 0 1 350.368,52.368"/></mask><path x="347" y="49" width="91" height="23" fill="#3b82f618" d="M358.5,49 h68 a11.5,11.5 0 0 1 11.5,11.5 v0 a11.5,11.5 0 0 1 -11.5,11.5 h-68 a11.5,11.5 0 0 1 -11.5,-11.5 v0 a11.5,11.5 0 0 1 11.5,-11.5"/><path width="91" height="23" clip-path="url(#satori_bc-id-0-1-2)" fill="none" stroke="#3b82f640" stroke-width="2" d="M350.368,52.368 A11.5,11.5 0 0 1 358.5,49 h68 a11.5,11.5 0 0 1 11.5,11.5 v0 a11.5,11.5 0 0 1 -11.5,11.5 h-68 a11.5,11.5 0 0 1 -11.5,-11.5 v0 A11.5,11.5 0 0 1 350.368,52.368"/><g  ><path fill="#3b82f6" d="M363.1 57.8L360.4 57.8L360.4 56.3L367.6 56.3L367.6 57.8L364.9 57.8L364.9 65L363.1 65L363.1 57.8ZM368.7 67.3L368.7 67.3L369.1 66.0L369.3 66.0Q369.7 66.1 370.0 66.1Q370.2 66.1 370.4 65.9Q370.6 65.7 370.6 65.4L370.6 65.4L370.7 65.0L368.2 58.4L370.1 58.4L371.2 61.8Q371.4 62.5 371.5 63.1L371.5 63.1Q371.5 63.4 371.6 63.6L371.6 63.6Q371.6 63.4 371.7 63.1L371.7 63.1Q371.8 62.5 372.1 61.8L372.1 61.8L373.2 58.4L375.0 58.4L372.3 65.8Q372.1 66.3 371.8 66.7Q371.4 67.1 371.0 67.3Q370.5 67.5 369.9 67.5L369.9 67.5Q369.5 67.5 369.2 67.4Q368.9 67.4 368.7 67.3ZM377.7 67.4L376.0 67.4L376.0 58.4L377.7 58.4L377.7 59.6L377.8 59.6Q377.9 59.3 378.1 59.0Q378.4 58.7 378.7 58.6Q379.1 58.4 379.7 58.4L379.7 58.4Q380.4 58.4 381.0 58.7Q381.6 59.1 382.0 59.9Q382.3 60.6 382.3 61.7L382.3 61.7Q382.3 62.8 382.0 63.6Q381.6 64.3 381.0 64.7Q380.4 65.1 379.7 65.1L379.7 65.1Q379.1 65.1 378.8 64.9Q378.4 64.7 378.1 64.5Q377.9 64.2 377.8 64.0L377.8 64.0L377.7 64.0L377.7 67.4ZM379.1 63.7L379.1 63.7Q379.6 63.7 379.9 63.4Q380.2 63.2 380.4 62.8Q380.5 62.3 380.5 61.7L380.5 61.7Q380.5 61.2 380.4 60.7Q380.2 60.3 379.9 60.0Q379.6 59.8 379.1 59.8L379.1 59.8Q378.7 59.8 378.3 60.0Q378.0 60.3 377.9 60.7Q377.7 61.1 377.7 61.7L377.7 61.7Q377.7 62.3 377.9 62.8Q378.0 63.2 378.4 63.5Q378.7 63.7 379.1 63.7ZM386.5 65.1L386.5 65.1Q385.5 65.1 384.8 64.7Q384.1 64.3 383.7 63.6Q383.3 62.8 383.3 61.8L383.3 61.8Q383.3 60.7 383.7 60.0Q384.0 59.2 384.8 58.8Q385.5 58.4 386.4 58.4L386.4 58.4Q387.1 58.4 387.6 58.6Q388.2 58.8 388.6 59.2Q389.0 59.6 389.3 60.2Q389.5 60.8 389.5 61.7L389.5 61.7L389.5 62.2L385.0 62.2Q385.0 62.7 385.2 63.0L385.2 63.0Q385.4 63.4 385.7 63.6Q386.1 63.8 386.5 63.8L386.5 63.8Q386.8 63.8 387.1 63.7Q387.4 63.6 387.5 63.5Q387.7 63.3 387.8 63.0L387.8 63.0L389.4 63.3Q389.2 63.9 388.8 64.3Q388.5 64.7 387.9 64.9Q387.3 65.1 386.5 65.1ZM385.0 61.1L385.0 61.1L387.8 61.1Q387.8 60.8 387.7 60.5L387.7 60.5Q387.5 60.1 387.2 59.9Q386.9 59.7 386.4 59.7L386.4 59.7Q386.0 59.7 385.7 59.9Q385.3 60.1 385.2 60.5L385.2 60.5Q385.1 60.7 385.0 61.1ZM393.9 65.1L393.9 65.1Q392.9 65.1 392.1 64.8Q391.3 64.5 390.9 63.9Q390.5 63.2 390.4 62.3L390.4 62.3L392.2 62.3Q392.2 62.7 392.4 63.0Q392.7 63.3 393.1 63.5Q393.4 63.6 393.9 63.6L393.9 63.6Q394.4 63.6 394.8 63.5Q395.1 63.3 395.3 63.1Q395.5 62.8 395.5 62.5L395.5 62.5Q395.5 62.2 395.3 62.0Q395.2 61.8 394.8 61.7Q394.5 61.5 394.0 61.4L394.0 61.4L393.0 61.2Q391.9 60.9 391.3 60.3Q390.7 59.7 390.7 58.8L390.7 58.8Q390.7 58.0 391.1 57.4Q391.5 56.8 392.3 56.5Q393.0 56.2 394.0 56.2L394.0 56.2Q394.9 56.2 395.6 56.5Q396.4 56.8 396.8 57.4Q397.2 58.0 397.2 58.8L397.2 58.8L395.5 58.8Q395.4 58.2 395.0 57.9Q394.6 57.7 393.9 57.7L393.9 57.7Q393.5 57.7 393.2 57.8Q392.8 57.9 392.7 58.1Q392.5 58.4 392.5 58.7L392.5 58.7Q392.5 59.0 392.7 59.2Q392.9 59.4 393.2 59.5Q393.5 59.7 393.9 59.8L393.9 59.8L394.7 60.0Q395.3 60.1 395.7 60.3Q396.2 60.5 396.6 60.8Q396.9 61.1 397.1 61.5Q397.3 62.0 397.3 62.5L397.3 62.5Q397.3 63.3 396.9 63.9Q396.5 64.5 395.8 64.8Q395.0 65.1 393.9 65.1ZM401.5 65.1L401.5 65.1Q400.5 65.1 399.8 64.7Q399.1 64.3 398.7 63.5Q398.3 62.8 398.3 61.8L398.3 61.8Q398.3 60.7 398.7 60.0Q399.1 59.2 399.8 58.8Q400.5 58.4 401.5 58.4L401.5 58.4Q402.1 58.4 402.6 58.5Q403.0 58.7 403.4 59.0Q403.8 59.2 404.1 59.6Q404.3 60.0 404.4 60.5L404.4 60.5L402.8 60.9Q402.7 60.6 402.6 60.4Q402.5 60.2 402.3 60.0Q402.2 59.9 402.0 59.8Q401.8 59.8 401.5 59.8L401.5 59.8Q401.0 59.8 400.7 60.0Q400.4 60.3 400.2 60.7Q400.1 61.2 400.1 61.7L400.1 61.7Q400.1 62.3 400.2 62.8Q400.4 63.2 400.7 63.5Q401.0 63.7 401.5 63.7L401.5 63.7Q401.8 63.7 402.0 63.7Q402.2 63.6 402.3 63.4Q402.5 63.3 402.6 63.1Q402.7 62.9 402.8 62.6L402.8 62.6L404.4 62.9Q404.3 63.4 404.1 63.8Q403.8 64.2 403.4 64.5Q403.1 64.8 402.6 65.0Q402.1 65.1 401.5 65.1ZM407.4 65L405.6 65L405.6 58.4L407.3 58.4L407.3 59.6L407.4 59.6Q407.6 59.0 408.0 58.7Q408.4 58.4 409.0 58.4L409.0 58.4Q409.1 58.4 409.3 58.4Q409.4 58.4 409.5 58.4L409.5 58.4L409.5 60.0Q409.4 59.9 409.2 59.9Q409.0 59.9 408.8 59.9L408.8 59.9Q408.4 59.9 408.1 60.1Q407.7 60.2 407.6 60.6Q407.4 60.9 407.4 61.3L407.4 61.3L407.4 65ZM412.3 65L410.5 65L410.5 58.4L412.3 58.4L412.3 65ZM411.4 57.6L411.4 57.6Q411.0 57.6 410.7 57.3Q410.4 57.1 410.4 56.7L410.4 56.7Q410.4 56.3 410.7 56.1Q411.0 55.8 411.4 55.8L411.4 55.8Q411.8 55.8 412.1 56.0Q412.3 56.3 412.3 56.7L412.3 56.7Q412.3 57.1 412.1 57.3Q411.8 57.6 411.4 57.6ZM415.5 67.4L413.8 67.4L413.8 58.4L415.5 58.4L415.5 59.6L415.6 59.6Q415.7 59.3 415.9 59.0Q416.1 58.7 416.5 58.6Q416.9 58.4 417.4 58.4L417.4 58.4Q418.2 58.4 418.8 58.7Q419.4 59.1 419.7 59.9Q420.1 60.6 420.1 61.7L420.1 61.7Q420.1 62.8 419.7 63.6Q419.4 64.3 418.8 64.7Q418.2 65.1 417.4 65.1L417.4 65.1Q416.9 65.1 416.5 64.9Q416.2 64.7 415.9 64.5Q415.7 64.2 415.6 64.0L415.6 64.0L415.5 64.0L415.5 67.4ZM416.9 63.7L416.9 63.7Q417.3 63.7 417.7 63.4Q418.0 63.2 418.1 62.8Q418.3 62.3 418.3 61.7L418.3 61.7Q418.3 61.2 418.1 60.7Q418.0 60.3 417.7 60.0Q417.3 59.8 416.9 59.8L416.9 59.8Q416.4 59.8 416.1 60.0Q415.8 60.3 415.6 60.7Q415.5 61.1 415.5 61.7L415.5 61.7Q415.5 62.3 415.6 62.8Q415.8 63.2 416.1 63.5Q416.4 63.7 416.9 63.7ZM423.3 58.4L424.6 58.4L424.6 59.8L423.3 59.8L423.3 63.1Q423.3 63.4 423.5 63.5Q423.6 63.7 423.9 63.7L423.9 63.7Q424.0 63.7 424.2 63.7Q424.4 63.6 424.5 63.6L424.5 63.6L424.8 64.9Q424.5 65.0 424.2 65.1Q423.9 65.1 423.6 65.1L423.6 65.1Q422.6 65.1 422.1 64.6Q421.6 64.1 421.6 63.2L421.6 63.2L421.6 59.8L420.7 59.8L420.7 58.4L421.6 58.4L421.6 56.9L423.3 56.9L423.3 58.4Z "/></g><defs><clipPath id="satori_bc-id-0-1-3"><path x="446" y="49" width="55" height="23" d="M457.5,49 h32 a11.5,11.5 0 0 1 11.5,11.5 v0 a11.5,11.5 0 0 1 -11.5,11.5 h-32 a11.5,11.5 0 0 1 -11.5,-11.5 v0 a11.5,11.5 0 0 1 11.5,-11.5"/></clipPath></defs><mask id="satori_om-id-0-1-3"><rect x="447" y="50" width="53" height="21" fill="#fff"/><path width="55" height="23" fill="none" stroke="#000" stroke-width="2" d="M449.368,52.368 A11.5,11.5 0 0 1 457.5,49 h32 a11.5,11.5 0 0 1 11.5,11.5 v0 a11.5,11.5 0 0 1 -11.5,11.5 h-32 a11.5,11.5 0 0 1 -11.5,-11.5 v0 A11.5,11.5 0 0 1 449.368,52.368"/></mask><path x="446" y="49" width="55" height="23" fill="#10b98118" d="M457.5,49 h32 a11.5,11.5 0 0 1 11.5,11.5 v0 a11.5,11.5 0 0 1 -11.5,11.5 h-32 a11.5,11.5 0 0 1 -11.5,-11.5 v0 a11.5,11.5 0 0 1 11.5,-11.5"/><path width="55" height="23" clip-path="url(#satori_bc-id-0-1-3)" fill="none" stroke="#10b98140" stroke-width="2" d="M449.368,52.368 A11.5,11.5 0 0 1 457.5,49 h32 a11.5,11.5 0 0 1 11.5,11.5 v0 a11.5,11.5 0 0 1 -11.5,11.5 h-32 a11.5,11.5 0 0 1 -11.5,-11.5 v0 A11.5,11.5 0 0 1 449.368,52.368"/><g  ><path fill="#10b981" d="M465.3 65L459.8 65L459.8 56.3L461.6 56.3L461.6 63.5L465.3 63.5L465.3 65ZM468.8 65.1L468.8 65.1Q468.1 65.1 467.6 64.8Q467.1 64.5 466.8 63.9Q466.5 63.4 466.5 62.6L466.5 62.6L466.5 58.4L468.3 58.4L468.3 62.3Q468.3 62.9 468.6 63.3Q468.9 63.6 469.5 63.6L469.5 63.6Q469.9 63.6 470.1 63.5Q470.4 63.3 470.6 63.0Q470.7 62.7 470.7 62.2L470.7 62.2L470.7 58.4L472.5 58.4L472.5 65L470.8 65L470.8 63.6Q470.6 64.3 470.1 64.6L470.1 64.6Q469.6 65.1 468.8 65.1ZM475.8 65.1L475.8 65.1Q475.2 65.1 474.7 64.9Q474.2 64.7 473.9 64.3Q473.7 63.8 473.7 63.2L473.7 63.2Q473.7 62.6 473.9 62.3Q474.1 61.9 474.4 61.7Q474.8 61.4 475.2 61.3Q475.6 61.2 476.1 61.2L476.1 61.2Q476.7 61.1 477.0 61.0Q477.4 61.0 477.6 60.9Q477.7 60.8 477.7 60.6L477.7 60.6L477.7 60.5Q477.7 60.3 477.6 60.1Q477.5 59.9 477.2 59.8Q477.0 59.7 476.7 59.7L476.7 59.7Q476.3 59.7 476.1 59.8Q475.8 59.9 475.7 60.0Q475.5 60.2 475.5 60.4L475.5 60.4L473.8 60.2Q474.0 59.6 474.4 59.2Q474.8 58.8 475.4 58.6Q476.0 58.4 476.7 58.4L476.7 58.4Q477.2 58.4 477.7 58.5Q478.2 58.6 478.6 58.9Q479.0 59.1 479.2 59.6Q479.5 60.0 479.5 60.6L479.5 60.6L479.5 65L477.8 65L477.8 64.1L477.8 64.1Q477.6 64.4 477.3 64.6Q477.1 64.9 476.7 65.0Q476.3 65.1 475.8 65.1ZM476.3 63.9L476.3 63.9Q476.7 63.9 477.1 63.7Q477.4 63.6 477.6 63.3Q477.7 63.0 477.7 62.7L477.7 62.7L477.7 61.9Q477.7 62.0 477.5 62.1Q477.3 62.1 477.1 62.1Q476.9 62.2 476.8 62.2Q476.6 62.2 476.4 62.2L476.4 62.2Q476.1 62.3 475.9 62.4Q475.6 62.5 475.5 62.7Q475.3 62.8 475.3 63.1L475.3 63.1Q475.3 63.4 475.5 63.5Q475.6 63.7 475.8 63.8Q476.0 63.9 476.3 63.9ZM483.2 65.1L483.2 65.1Q482.5 65.1 482.0 64.8Q481.5 64.5 481.3 63.9Q481.0 63.4 481.0 62.6L481.0 62.6L481.0 58.4L482.7 58.4L482.7 62.3Q482.7 62.9 483.0 63.3Q483.4 63.6 483.9 63.6L483.9 63.6Q484.3 63.6 484.6 63.5Q484.9 63.3 485.0 63.0Q485.2 62.7 485.2 62.2L485.2 62.2L485.2 58.4L486.9 58.4L486.9 65L485.3 65L485.3 63.6Q485.0 64.3 484.6 64.6L484.6 64.6Q484.0 65.1 483.2 65.1Z "/></g><defs><clipPath id="satori_bc-id-0-1-4"><path x="509" y="49" width="91" height="23" d="M520.5,49 h68 a11.5,11.5 0 0 1 11.5,11.5 v0 a11.5,11.5 0 0 1 -11.5,11.5 h-68 a11.5,11.5 0 0 1 -11.5,-11.5 v0 a11.5,11.5 0 0 1 11.5,-11.5"/></clipPath></defs><mask id="satori_om-id-0-1-4"><rect x="510" y="50" width="89" height="21" fill="#fff"/><path width="91" height="23" fill="none" stroke="#000" stroke-width="2" d="M512.368,52.368 A11.5,11.5 0 0 1 520.5,49 h68 a11.5,11.5 0 0 1 11.5,11.5 v0 a11.5,11.5 0 0 1 -11.5,11.5 h-68 a11.5,11.5 0 0 1 -11.5,-11.5 v0 A11.5,11.5 0 0 1 512.368,52.368"/></mask><path x="509" y="49" width="91" height="23" fill="#f9731618" d="M520.5,49 h68 a11.5,11.5 0 0 1 11.5,11.5 v0 a11.5,11.5 0 0 1 -11.5,11.5 h-68 a11.5,11.5 0 0 1 -11.5,-11.5 v0 a11.5,11.5 0 0 1 11.5,-11.5"/><path width="91" height="23" clip-path="url(#satori_bc-id-0-1-4)" fill="none" stroke="#f9731640" stroke-width="2" d="M512.368,52.368 A11.5,11.5 0 0 1 520.5,49 h68 a11.5,11.5 0 0 1 11.5,11.5 v0 a11.5,11.5 0 0 1 -11.5,11.5 h-68 a11.5,11.5 0 0 1 -11.5,-11.5 v0 A11.5,11.5 0 0 1 512.368,52.368"/><g  ><path fill="#f97316" d="M524.6 65L522.8 65L522.8 56.3L524.6 56.3L524.6 59.8L528.4 59.8L528.4 56.3L530.2 56.3L530.2 65L528.4 65L528.4 61.3L524.6 61.3L524.6 65ZM534.1 57.8L531.4 57.8L531.4 56.3L538.5 56.3L538.5 57.8L535.9 57.8L535.9 65L534.1 65L534.1 57.8ZM541.5 65L539.8 65L539.8 56.3L542.5 56.3L543.9 60.3Q544.0 60.6 544.1 61.0Q544.2 61.4 544.4 62.0L544.4 62.0Q544.5 62.5 544.6 62.9L544.6 62.9Q544.7 62.5 544.8 62.0L544.8 62.0Q544.9 61.5 545.0 61.0Q545.1 60.6 545.2 60.3L545.2 60.3L546.6 56.3L549.4 56.3L549.4 65L547.6 65L547.6 60.9Q547.6 60.6 547.6 60.2Q547.6 59.7 547.6 59.2Q547.6 58.8 547.6 58.3L547.6 58.3Q547.6 58.0 547.6 57.8L547.6 57.8Q547.6 58.1 547.5 58.3L547.5 58.3Q547.4 58.8 547.2 59.3Q547.1 59.8 547.0 60.2Q546.9 60.6 546.8 60.9L546.8 60.9L545.3 65L543.8 65L542.3 60.9Q542.3 60.6 542.1 60.2Q542.0 59.8 541.9 59.3Q541.7 58.8 541.6 58.3L541.6 58.3Q541.5 58.1 541.5 57.9L541.5 57.9Q541.5 58.0 541.5 58.2L541.5 58.2Q541.5 58.7 541.5 59.2Q541.5 59.7 541.5 60.2Q541.5 60.6 541.5 60.9L541.5 60.9L541.5 65ZM556.5 65L550.9 65L550.9 56.3L552.7 56.3L552.7 63.5L556.5 63.5L556.5 65ZM559.9 55.9L561.4 55.9L558.6 66.3L557.1 66.3L559.9 55.9ZM566.2 65.1L566.2 65.1Q565.0 65.1 564.1 64.6Q563.2 64.1 562.7 63.1Q562.1 62.1 562.1 60.6L562.1 60.6Q562.1 59.2 562.7 58.2Q563.2 57.2 564.1 56.7Q565.1 56.2 566.2 56.2L566.2 56.2Q566.9 56.2 567.6 56.4Q568.2 56.6 568.7 57.0Q569.2 57.4 569.5 57.9Q569.9 58.5 570.0 59.3L570.0 59.3L568.1 59.3Q568.1 58.9 567.9 58.6Q567.8 58.3 567.5 58.1Q567.3 57.9 566.9 57.8Q566.6 57.7 566.2 57.7L566.2 57.7Q565.6 57.7 565.0 58.1Q564.5 58.4 564.2 59.1Q564.0 59.7 564.0 60.6L564.0 60.6Q564.0 61.6 564.3 62.2Q564.5 62.9 565.0 63.2Q565.6 63.5 566.2 63.5L566.2 63.5Q566.6 63.5 566.9 63.4Q567.2 63.3 567.5 63.1Q567.8 62.9 567.9 62.7Q568.1 62.4 568.2 62.0L568.2 62.0L570.0 62.0Q569.9 62.6 569.6 63.2Q569.3 63.7 568.8 64.2Q568.4 64.6 567.7 64.9Q567.0 65.1 566.2 65.1ZM574.5 65.1L574.5 65.1Q573.4 65.1 572.6 64.8Q571.9 64.5 571.4 63.9Q571.0 63.2 571.0 62.3L571.0 62.3L572.7 62.3Q572.7 62.7 573.0 63.0Q573.2 63.3 573.6 63.5Q574.0 63.6 574.4 63.6L574.4 63.6Q574.9 63.6 575.3 63.5Q575.6 63.3 575.8 63.1Q576.0 62.8 576.0 62.5L576.0 62.5Q576.0 62.2 575.9 62.0Q575.7 61.8 575.3 61.7Q575.0 61.5 574.5 61.4L574.5 61.4L573.6 61.2Q572.5 60.9 571.8 60.3Q571.2 59.7 571.2 58.8L571.2 58.8Q571.2 58.0 571.6 57.4Q572.1 56.8 572.8 56.5Q573.5 56.2 574.5 56.2L574.5 56.2Q575.5 56.2 576.2 56.5Q576.9 56.8 577.3 57.4Q577.7 58.0 577.7 58.8L577.7 58.8L576.0 58.8Q575.9 58.2 575.5 57.9Q575.1 57.7 574.5 57.7L574.5 57.7Q574.0 57.7 573.7 57.8Q573.4 57.9 573.2 58.1Q573.0 58.4 573.0 58.7L573.0 58.7Q573.0 59.0 573.2 59.2Q573.4 59.4 573.8 59.5Q574.1 59.7 574.4 59.8L574.4 59.8L575.2 60.0Q575.8 60.1 576.3 60.3Q576.7 60.5 577.1 60.8Q577.4 61.1 577.6 61.5Q577.8 62.0 577.8 62.5L577.8 62.5Q577.8 63.3 577.4 63.9Q577.0 64.5 576.3 64.8Q575.5 65.1 574.5 65.1ZM582.3 65.1L582.3 65.1Q581.3 65.1 580.5 64.8Q579.7 64.5 579.3 63.9Q578.9 63.2 578.8 62.3L578.8 62.3L580.6 62.3Q580.6 62.7 580.8 63.0Q581.1 63.3 581.4 63.5Q581.8 63.6 582.3 63.6L582.3 63.6Q582.8 63.6 583.1 63.5Q583.5 63.3 583.7 63.1Q583.9 62.8 583.9 62.5L583.9 62.5Q583.9 62.2 583.7 62.0Q583.5 61.8 583.2 61.7Q582.9 61.5 582.4 61.4L582.4 61.4L581.4 61.2Q580.3 60.9 579.7 60.3Q579.1 59.7 579.1 58.8L579.1 58.8Q579.1 58.0 579.5 57.4Q579.9 56.8 580.7 56.5Q581.4 56.2 582.3 56.2L582.3 56.2Q583.3 56.2 584.0 56.5Q584.8 56.8 585.2 57.4Q585.6 58.0 585.6 58.8L585.6 58.8L583.8 58.8Q583.8 58.2 583.4 57.9Q583.0 57.7 582.3 57.7L582.3 57.7Q581.9 57.7 581.6 57.8Q581.2 57.9 581.1 58.1Q580.9 58.4 580.9 58.7L580.9 58.7Q580.9 59.0 581.1 59.2Q581.3 59.4 581.6 59.5Q581.9 59.7 582.3 59.8L582.3 59.8L583.1 60.0Q583.6 60.1 584.1 60.3Q584.6 60.5 584.9 60.8Q585.3 61.1 585.5 61.5Q585.7 62.0 585.7 62.5L585.7 62.5Q585.7 63.3 585.3 63.9Q584.9 64.5 584.1 64.8Q583.4 65.1 582.3 65.1Z "/></g><mask id="satori_om-id-1"><rect x="41" y="88" width="778" height="23" fill="#fff"/></mask><mask id="satori_om-id-1-0"><rect x="41" y="93" width="120" height="13" fill="#fff"/></mask><g  ><path fill="rgba(160,150,210,0.6)" d="M43.4 104L41.7 104L41.7 96.0L47.0 96.0L47.0 97.4L43.4 97.4L43.4 99.6L46.6 99.6L46.6 100.9L43.4 100.9L43.4 104ZM49.8 104L48.1 104L48.1 98.0L49.7 98.0L49.7 99.0L49.8 99.0Q49.9 98.5 50.3 98.2Q50.7 97.9 51.2 97.9L51.2 97.9Q51.3 97.9 51.5 97.9Q51.6 97.9 51.7 98.0L51.7 98.0L51.7 99.4Q51.6 99.4 51.4 99.3Q51.2 99.3 51.0 99.3L51.0 99.3Q50.7 99.3 50.4 99.5Q50.1 99.6 49.9 99.9Q49.8 100.2 49.8 100.6L49.8 100.6L49.8 104ZM54.3 104.1L54.3 104.1Q53.7 104.1 53.3 103.9Q52.8 103.7 52.6 103.3Q52.3 102.9 52.3 102.3L52.3 102.3Q52.3 101.8 52.5 101.5Q52.7 101.1 53.0 100.9Q53.3 100.7 53.7 100.6Q54.1 100.5 54.6 100.5L54.6 100.5Q55.1 100.4 55.4 100.4Q55.7 100.3 55.9 100.2Q56.0 100.1 56.0 99.9L56.0 99.9L56.0 99.9Q56.0 99.7 55.9 99.5Q55.8 99.3 55.6 99.2Q55.4 99.1 55.1 99.1L55.1 99.1Q54.8 99.1 54.5 99.2Q54.3 99.3 54.2 99.5Q54.0 99.6 53.9 99.8L53.9 99.8L52.5 99.6Q52.6 99.0 53.0 98.7Q53.3 98.3 53.9 98.1Q54.4 97.9 55.1 97.9L55.1 97.9Q55.6 97.9 56.0 98.0Q56.5 98.2 56.8 98.4Q57.2 98.6 57.4 99.0Q57.6 99.4 57.6 100.0L57.6 100.0L57.6 104L56.1 104L56.1 103.2L56.1 103.2Q55.9 103.4 55.7 103.7Q55.4 103.9 55.1 104.0Q54.7 104.1 54.3 104.1ZM54.8 103.0L54.8 103.0Q55.1 103.0 55.4 102.8Q55.7 102.7 55.9 102.4Q56.0 102.2 56.0 101.9L56.0 101.9L56.0 101.2Q56.0 101.3 55.8 101.3Q55.7 101.3 55.5 101.4Q55.3 101.4 55.1 101.4Q55.0 101.5 54.8 101.5L54.8 101.5Q54.5 101.5 54.3 101.6Q54.1 101.7 54.0 101.9Q53.8 102.0 53.8 102.3L53.8 102.3Q53.8 102.5 54.0 102.7Q54.1 102.8 54.3 102.9Q54.5 103.0 54.8 103.0ZM60.6 104L59.0 104L59.0 98.0L60.5 98.0L60.6 99.2Q60.7 98.8 60.9 98.6L60.9 98.6Q61.1 98.2 61.5 98.1Q61.9 97.9 62.3 97.9L62.3 97.9Q62.9 97.9 63.3 98.3L63.3 98.3Q63.6 98.6 63.8 99.2L63.8 99.2Q64.0 98.9 64.2 98.6L64.2 98.6Q64.5 98.3 64.9 98.1Q65.3 97.9 65.8 97.9L65.8 97.9Q66.3 97.9 66.7 98.1Q67.2 98.4 67.4 98.8Q67.7 99.3 67.7 100.0L67.7 100.0L67.7 104L66.1 104L66.1 100.3Q66.1 99.7 65.8 99.5Q65.5 99.3 65.1 99.3L65.1 99.3Q64.8 99.3 64.6 99.4Q64.4 99.5 64.2 99.8Q64.1 100.0 64.1 100.3L64.1 100.3L64.1 104L62.6 104L62.6 100.2Q62.6 99.8 62.3 99.5Q62.0 99.3 61.6 99.3L61.6 99.3Q61.3 99.3 61.1 99.4Q60.9 99.5 60.8 99.8Q60.6 100.0 60.6 100.4L60.6 100.4L60.6 104ZM71.8 104.1L71.8 104.1Q70.8 104.1 70.2 103.7Q69.5 103.4 69.2 102.7Q68.8 102.0 68.8 101.0L68.8 101.0Q68.8 100.1 69.1 99.4Q69.5 98.7 70.2 98.3Q70.8 97.9 71.7 97.9L71.7 97.9Q72.3 97.9 72.8 98.1Q73.3 98.3 73.7 98.7Q74.1 99.1 74.3 99.6Q74.5 100.2 74.5 101.0L74.5 101.0L74.5 101.4L70.4 101.4Q70.4 101.9 70.6 102.2L70.6 102.2Q70.7 102.5 71.1 102.7Q71.4 102.9 71.8 102.9L71.8 102.9Q72.1 102.9 72.3 102.8Q72.5 102.7 72.7 102.6Q72.9 102.4 72.9 102.2L72.9 102.2L74.4 102.5Q74.3 103.0 73.9 103.3Q73.5 103.7 73.0 103.9Q72.5 104.1 71.8 104.1ZM70.4 100.4L70.4 100.4L72.9 100.4Q72.9 100.1 72.8 99.9L72.8 99.9Q72.7 99.5 72.4 99.3Q72.1 99.1 71.7 99.1L71.7 99.1Q71.3 99.1 71.0 99.3Q70.7 99.5 70.5 99.8L70.5 99.8Q70.4 100.1 70.4 100.4ZM78.5 104L76.9 104L75.1 98.0L76.8 98.0L77.3 100.2Q77.4 100.8 77.6 101.5L77.6 101.5Q77.7 102.0 77.8 102.5L77.8 102.5Q77.9 102.0 78.0 101.5L78.0 101.5Q78.2 100.8 78.3 100.2L78.3 100.2L78.9 98.0L80.3 98.0L80.9 100.2Q81.0 100.8 81.2 101.5L81.2 101.5Q81.3 102.0 81.4 102.5L81.4 102.5Q81.5 102.0 81.6 101.5L81.6 101.5Q81.7 100.8 81.9 100.2L81.9 100.2L82.4 98.0L84.1 98.0L82.3 104L80.7 104L80.0 101.7Q79.9 101.3 79.8 100.9Q79.7 100.5 79.6 100.1L79.6 100.1Q79.6 100.0 79.6 99.8L79.6 99.8Q79.6 100.0 79.5 100.1L79.5 100.1Q79.4 100.5 79.3 100.9Q79.3 101.3 79.2 101.7L79.2 101.7L78.5 104ZM87.6 104.1L87.6 104.1Q86.7 104.1 86.1 103.7Q85.4 103.3 85.1 102.6Q84.7 101.9 84.7 101.0L84.7 101.0Q84.7 100.1 85.1 99.4Q85.4 98.7 86.1 98.3Q86.7 97.9 87.6 97.9L87.6 97.9Q88.5 97.9 89.2 98.3Q89.9 98.7 90.2 99.4Q90.6 100.1 90.6 101.0L90.6 101.0Q90.6 101.9 90.2 102.6Q89.9 103.3 89.2 103.7Q88.5 104.1 87.6 104.1ZM87.6 102.9L87.6 102.9Q88.1 102.9 88.4 102.6Q88.6 102.4 88.8 102.0Q88.9 101.5 88.9 101.0L88.9 101.0Q88.9 100.5 88.8 100.1Q88.6 99.7 88.4 99.4Q88.1 99.2 87.6 99.2L87.6 99.2Q87.2 99.2 86.9 99.4Q86.6 99.7 86.5 100.1Q86.3 100.5 86.3 101.0L86.3 101.0Q86.3 101.5 86.5 102.0Q86.6 102.4 86.9 102.6Q87.2 102.9 87.6 102.9ZM93.3 104L91.7 104L91.7 98.0L93.3 98.0L93.3 99.0L93.3 99.0Q93.5 98.5 93.9 98.2Q94.3 97.9 94.8 97.9L94.8 97.9Q94.9 97.9 95.0 97.9Q95.2 97.9 95.3 98.0L95.3 98.0L95.3 99.4Q95.2 99.4 95.0 99.3Q94.8 99.3 94.6 99.3L94.6 99.3Q94.2 99.3 93.9 99.5Q93.6 99.6 93.5 99.9Q93.3 100.2 93.3 100.6L93.3 100.6L93.3 104ZM97.8 104L96.2 104L96.2 96.0L97.8 96.0L97.8 100.3L97.9 100.3L99.8 98.0L101.7 98.0L99.5 100.6L101.8 104L99.9 104L98.3 101.6L97.8 102.1L97.8 104ZM104.9 104.1L104.9 104.1Q104.2 104.1 103.7 103.9Q103.1 103.7 102.7 103.3Q102.4 102.9 102.3 102.4L102.3 102.4L103.8 102.1Q103.9 102.5 104.2 102.7Q104.5 102.9 105.0 102.9L105.0 102.9Q105.5 102.9 105.7 102.8Q106.0 102.6 106.0 102.3L106.0 102.3Q106.0 102.1 105.8 101.9Q105.6 101.8 105.2 101.7L105.2 101.7L104.2 101.5Q103.3 101.3 102.9 100.9Q102.4 100.5 102.4 99.8L102.4 99.8Q102.4 99.2 102.8 98.8Q103.1 98.4 103.6 98.1Q104.2 97.9 105.0 97.9L105.0 97.9Q105.7 97.9 106.2 98.1Q106.7 98.3 107.0 98.7Q107.4 99.0 107.5 99.5L107.5 99.5L106.0 99.8Q106.0 99.5 105.7 99.3Q105.4 99.1 105.0 99.1L105.0 99.1Q104.6 99.1 104.3 99.2Q104.1 99.4 104.1 99.7L104.1 99.7Q104.1 99.9 104.2 100.1Q104.4 100.2 104.8 100.3L104.8 100.3L105.9 100.5Q106.8 100.7 107.2 101.1Q107.6 101.5 107.6 102.1L107.6 102.1Q107.6 102.7 107.3 103.2Q106.9 103.6 106.3 103.9Q105.7 104.1 104.9 104.1Z M113.7 104.1L113.7 104.1Q112.9 104.1 112.3 103.8Q111.7 103.5 111.4 103.0Q111.1 102.5 111.1 101.9L111.1 101.9Q111.1 101.4 111.3 101.0Q111.5 100.7 111.8 100.4L111.8 100.4Q112.1 100.1 112.5 99.8L112.5 99.8Q112.5 99.7 112.5 99.7L112.5 99.7Q112.2 99.3 112.0 98.9Q111.8 98.4 111.8 97.9L111.8 97.9Q111.8 97.4 112.0 96.9Q112.3 96.4 112.8 96.2Q113.3 95.9 113.9 95.9L113.9 95.9Q114.6 95.9 115.0 96.2Q115.5 96.4 115.8 96.8Q116.0 97.3 116.0 97.8L116.0 97.8Q116.0 98.2 115.9 98.5Q115.7 98.8 115.5 99.1Q115.3 99.4 114.9 99.6L114.9 99.6L114.5 100.0L115.8 101.5Q115.9 101.4 116.0 101.2L116.0 101.2Q116.2 100.7 116.2 100.1L116.2 100.1L117.5 100.1Q117.5 100.9 117.3 101.4Q117.2 102.0 116.9 102.5L116.9 102.5Q116.8 102.5 116.8 102.6L116.8 102.6L118.0 104L116.3 104L115.8 103.5Q115.4 103.8 114.8 103.9L114.8 103.9Q114.3 104.1 113.7 104.1ZM114.9 102.5L113.4 100.7L113.3 100.8Q113.0 101.0 112.8 101.3Q112.6 101.5 112.6 101.8L112.6 101.8Q112.6 102.1 112.8 102.4Q112.9 102.6 113.2 102.7Q113.5 102.8 113.8 102.8L113.8 102.8Q114.2 102.8 114.7 102.6L114.7 102.6Q114.8 102.6 114.9 102.5L114.9 102.5ZM113.7 99.0L113.7 99.0L114.1 98.7Q114.3 98.6 114.4 98.5Q114.5 98.4 114.6 98.2Q114.7 98.0 114.7 97.9L114.7 97.9Q114.7 97.6 114.5 97.4Q114.3 97.2 114.0 97.2L114.0 97.2Q113.7 97.2 113.5 97.3Q113.4 97.4 113.3 97.5Q113.2 97.7 113.2 97.9L113.2 97.9Q113.2 98.2 113.3 98.5Q113.4 98.7 113.7 99.0L113.7 99.0Q113.7 99.0 113.7 99.0Z M123.5 97.4L121.0 97.4L121.0 96.0L127.6 96.0L127.6 97.4L125.1 97.4L125.1 104L123.5 104L123.5 97.4ZM131.3 104.1L131.3 104.1Q130.4 104.1 129.8 103.7Q129.1 103.3 128.8 102.6Q128.4 101.9 128.4 101.0L128.4 101.0Q128.4 100.1 128.8 99.4Q129.1 98.7 129.8 98.3Q130.4 97.9 131.3 97.9L131.3 97.9Q132.3 97.9 132.9 98.3Q133.6 98.7 133.9 99.4Q134.3 100.1 134.3 101.0L134.3 101.0Q134.3 101.9 133.9 102.6Q133.6 103.3 132.9 103.7Q132.3 104.1 131.3 104.1ZM131.3 102.9L131.3 102.9Q131.8 102.9 132.1 102.6Q132.4 102.4 132.5 102.0Q132.6 101.5 132.6 101.0L132.6 101.0Q132.6 100.5 132.5 100.1Q132.4 99.7 132.1 99.4Q131.8 99.2 131.3 99.2L131.3 99.2Q130.9 99.2 130.6 99.4Q130.3 99.7 130.2 100.1Q130.1 100.5 130.1 101.0L130.1 101.0Q130.1 101.5 130.2 102.0Q130.3 102.4 130.6 102.6Q130.9 102.9 131.3 102.9ZM138.1 104.1L138.1 104.1Q137.2 104.1 136.5 103.7Q135.9 103.3 135.5 102.6Q135.2 101.9 135.2 101.0L135.2 101.0Q135.2 100.1 135.5 99.4Q135.9 98.7 136.5 98.3Q137.2 97.9 138.1 97.9L138.1 97.9Q139.0 97.9 139.7 98.3Q140.3 98.7 140.7 99.4Q141.0 100.1 141.0 101.0L141.0 101.0Q141.0 101.9 140.7 102.6Q140.3 103.3 139.7 103.7Q139.0 104.1 138.1 104.1ZM138.1 102.9L138.1 102.9Q138.5 102.9 138.8 102.6Q139.1 102.4 139.2 102.0Q139.4 101.5 139.4 101.0L139.4 101.0Q139.4 100.5 139.2 100.1Q139.1 99.7 138.8 99.4Q138.5 99.2 138.1 99.2L138.1 99.2Q137.7 99.2 137.4 99.4Q137.1 99.7 136.9 100.1Q136.8 100.5 136.8 101.0L136.8 101.0Q136.8 101.5 136.9 102.0Q137.1 102.4 137.4 102.6Q137.7 102.9 138.1 102.9ZM142.2 96.0L143.8 96.0L143.8 104L142.2 104L142.2 96.0ZM147.5 104.1L147.5 104.1Q146.8 104.1 146.2 103.9Q145.7 103.7 145.3 103.3Q145.0 102.9 144.9 102.4L144.9 102.4L146.4 102.1Q146.5 102.5 146.8 102.7Q147.1 102.9 147.6 102.9L147.6 102.9Q148.0 102.9 148.3 102.8Q148.6 102.6 148.6 102.3L148.6 102.3Q148.6 102.1 148.4 101.9Q148.2 101.8 147.8 101.7L147.8 101.7L146.8 101.5Q145.9 101.3 145.5 100.9Q145.0 100.5 145.0 99.8L145.0 99.8Q145.0 99.2 145.3 98.8Q145.7 98.4 146.2 98.1Q146.8 97.9 147.5 97.9L147.5 97.9Q148.3 97.9 148.8 98.1Q149.3 98.3 149.6 98.7Q149.9 99.0 150.0 99.5L150.0 99.5L148.6 99.8Q148.5 99.5 148.3 99.3Q148.0 99.1 147.6 99.1L147.6 99.1Q147.2 99.1 146.9 99.2Q146.6 99.4 146.6 99.7L146.6 99.7Q146.6 99.9 146.8 100.1Q147.0 100.2 147.4 100.3L147.4 100.3L148.5 100.5Q149.4 100.7 149.8 101.1Q150.2 101.5 150.2 102.1L150.2 102.1Q150.2 102.7 149.9 103.2Q149.5 103.6 148.9 103.9Q148.3 104.1 147.5 104.1Z "/></g><mask id="satori_om-id-1-1"><rect x="173" y="88" width="559" height="23" fill="#fff"/></mask><defs><clipPath id="satori_bc-id-1-1-0"><path x="173" y="88" width="72" height="23" d="M184.5,88 h49 a11.5,11.5 0 0 1 11.5,11.5 v0 a11.5,11.5 0 0 1 -11.5,11.5 h-49 a11.5,11.5 0 0 1 -11.5,-11.5 v0 a11.5,11.5 0 0 1 11.5,-11.5"/></clipPath></defs><mask id="satori_om-id-1-1-0"><rect x="174" y="89" width="70" height="21" fill="#fff"/><path width="72" height="23" fill="none" stroke="#000" stroke-width="2" d="M176.368,91.368 A11.5,11.5 0 0 1 184.5,88 h49 a11.5,11.5 0 0 1 11.5,11.5 v0 a11.5,11.5 0 0 1 -11.5,11.5 h-49 a11.5,11.5 0 0 1 -11.5,-11.5 v0 A11.5,11.5 0 0 1 176.368,91.368"/></mask><path x="173" y="88" width="72" height="23" fill="#22c55e18" d="M184.5,88 h49 a11.5,11.5 0 0 1 11.5,11.5 v0 a11.5,11.5 0 0 1 -11.5,11.5 h-49 a11.5,11.5 0 0 1 -11.5,-11.5 v0 a11.5,11.5 0 0 1 11.5,-11.5"/><path width="72" height="23" clip-path="url(#satori_bc-id-1-1-0)" fill="none" stroke="#22c55e40" stroke-width="2" d="M176.368,91.368 A11.5,11.5 0 0 1 184.5,88 h49 a11.5,11.5 0 0 1 11.5,11.5 v0 a11.5,11.5 0 0 1 -11.5,11.5 h-49 a11.5,11.5 0 0 1 -11.5,-11.5 v0 A11.5,11.5 0 0 1 176.368,91.368"/><g  ><path fill="#22c55e" d="M188.6 104L186.8 104L186.8 95.3L188.8 95.3L191.5 99.7Q191.8 100.0 192.0 100.4Q192.2 100.8 192.4 101.3L192.4 101.3Q192.5 101.6 192.6 101.8L192.6 101.8Q192.6 101.6 192.6 101.4L192.6 101.4Q192.6 100.8 192.6 100.3Q192.5 99.8 192.5 99.5L192.5 99.5L192.5 95.3L194.4 95.3L194.4 104L192.4 104L189.8 100.0Q189.6 99.5 189.3 99.1Q189.1 98.7 188.9 98.2L188.9 98.2Q188.7 97.9 188.5 97.5L188.5 97.5Q188.5 97.8 188.5 98.2L188.5 98.2Q188.6 98.7 188.6 99.2Q188.6 99.7 188.6 100.0L188.6 100.0L188.6 104ZM198.8 104.1L198.8 104.1Q197.8 104.1 197.1 103.7Q196.4 103.3 196.0 102.5Q195.6 101.8 195.6 100.8L195.6 100.8Q195.6 99.7 196.0 99.0Q196.4 98.2 197.1 97.8Q197.8 97.4 198.8 97.4L198.8 97.4Q199.8 97.4 200.5 97.8Q201.3 98.2 201.6 99.0Q202.0 99.7 202.0 100.8L202.0 100.8Q202.0 101.8 201.6 102.5Q201.3 103.3 200.5 103.7Q199.8 104.1 198.8 104.1ZM198.8 102.7L198.8 102.7Q199.3 102.7 199.6 102.5Q199.9 102.2 200.1 101.8Q200.2 101.3 200.2 100.7L200.2 100.7Q200.2 100.2 200.1 99.7Q199.9 99.3 199.6 99.0Q199.3 98.8 198.8 98.8L198.8 98.8Q198.4 98.8 198.0 99.0Q197.7 99.3 197.6 99.7Q197.4 100.2 197.4 100.7L197.4 100.7Q197.4 101.3 197.6 101.8Q197.7 102.2 198.0 102.5Q198.4 102.7 198.8 102.7ZM205.6 104.1L205.6 104.1Q204.9 104.1 204.3 103.7Q203.7 103.3 203.3 102.6Q203.0 101.8 203.0 100.7L203.0 100.7Q203.0 99.6 203.3 98.9Q203.7 98.1 204.3 97.7Q204.9 97.4 205.6 97.4L205.6 97.4Q206.2 97.4 206.6 97.6Q206.9 97.7 207.2 98.0Q207.4 98.3 207.5 98.6L207.5 98.6L207.6 98.6L207.6 95.3L209.3 95.3L209.3 104L207.6 104L207.6 103.0L207.5 103.0Q207.4 103.2 207.2 103.5Q206.9 103.7 206.6 103.9Q206.2 104.1 205.6 104.1ZM206.2 102.7L206.2 102.7Q206.6 102.7 207.0 102.5Q207.3 102.2 207.4 101.8Q207.6 101.3 207.6 100.7L207.6 100.7Q207.6 100.1 207.4 99.7Q207.3 99.3 207.0 99.0Q206.6 98.8 206.2 98.8L206.2 98.8Q205.7 98.8 205.4 99.0Q205.1 99.3 204.9 99.7Q204.8 100.2 204.8 100.7L204.8 100.7Q204.8 101.3 204.9 101.8Q205.1 102.2 205.4 102.4Q205.7 102.7 206.2 102.7ZM213.8 104.1L213.8 104.1Q212.8 104.1 212.1 103.7Q211.3 103.3 210.9 102.6Q210.5 101.8 210.5 100.8L210.5 100.8Q210.5 99.7 210.9 99.0Q211.3 98.2 212.0 97.8Q212.7 97.4 213.7 97.4L213.7 97.4Q214.3 97.4 214.9 97.6Q215.4 97.8 215.9 98.2Q216.3 98.6 216.5 99.2Q216.8 99.8 216.8 100.7L216.8 100.7L216.8 101.2L212.3 101.2Q212.3 101.7 212.5 102.0L212.5 102.0Q212.7 102.4 213.0 102.6Q213.4 102.8 213.8 102.8L213.8 102.8Q214.1 102.8 214.4 102.7Q214.6 102.6 214.8 102.5Q215.0 102.3 215.1 102.0L215.1 102.0L216.7 102.3Q216.5 102.9 216.1 103.3Q215.7 103.7 215.1 103.9Q214.5 104.1 213.8 104.1ZM212.3 100.1L212.3 100.1L215.1 100.1Q215.0 99.8 214.9 99.5L214.9 99.5Q214.8 99.1 214.5 98.9Q214.2 98.7 213.7 98.7L213.7 98.7Q213.3 98.7 212.9 98.9Q212.6 99.1 212.4 99.5L212.4 99.5Q212.3 99.7 212.3 100.1ZM219.2 104.1L219.2 104.1Q218.8 104.1 218.5 103.8Q218.2 103.5 218.2 103.1L218.2 103.1Q218.2 102.7 218.5 102.4Q218.8 102.1 219.2 102.1L219.2 102.1Q219.7 102.1 219.9 102.4Q220.2 102.7 220.2 103.1L220.2 103.1Q220.2 103.5 219.9 103.8Q219.7 104.1 219.2 104.1ZM222.0 104.3L222.0 97.4L223.7 97.4L223.7 104.3Q223.7 105.1 223.4 105.5Q223.1 106.0 222.6 106.2Q222.1 106.4 221.3 106.4L221.3 106.4L220.9 106.4L220.9 105.1L221.2 105.1Q221.6 105.1 221.8 104.9Q222.0 104.7 222.0 104.3L222.0 104.3ZM222.9 96.6L222.9 96.6Q222.5 96.6 222.2 96.3Q221.9 96.1 221.9 95.7L221.9 95.7Q221.9 95.3 222.2 95.1Q222.5 94.8 222.9 94.8L222.9 94.8Q223.3 94.8 223.5 95.0Q223.8 95.3 223.8 95.7L223.8 95.7Q223.8 96.1 223.5 96.3Q223.3 96.6 222.9 96.6ZM227.8 104.1L227.8 104.1Q227.0 104.1 226.4 103.9Q225.8 103.7 225.4 103.2Q225.0 102.8 224.9 102.2L224.9 102.2L226.6 101.9Q226.7 102.4 227.0 102.6Q227.3 102.8 227.9 102.8L227.9 102.8Q228.4 102.8 228.7 102.6Q229.0 102.5 229.0 102.2L229.0 102.2Q229.0 101.9 228.8 101.7Q228.6 101.6 228.1 101.5L228.1 101.5L227.0 101.3Q226.0 101.1 225.6 100.6Q225.1 100.1 225.1 99.4L225.1 99.4Q225.1 98.8 225.5 98.3Q225.8 97.9 226.4 97.6Q227.0 97.4 227.9 97.4L227.9 97.4Q228.6 97.4 229.2 97.6Q229.8 97.8 230.1 98.2Q230.5 98.6 230.6 99.1L230.6 99.1L229.0 99.4Q228.9 99.1 228.6 98.8Q228.4 98.6 227.9 98.6L227.9 98.6Q227.4 98.6 227.2 98.8Q226.9 99.0 226.9 99.3L226.9 99.3Q226.9 99.5 227.1 99.7Q227.2 99.9 227.7 100.0L227.7 100.0L228.9 100.2Q229.8 100.4 230.3 100.8Q230.8 101.3 230.8 102.0L230.8 102.0Q230.8 102.6 230.4 103.1Q230.0 103.6 229.4 103.9Q228.7 104.1 227.8 104.1Z "/></g><defs><clipPath id="satori_bc-id-1-1-1"><path x="253" y="88" width="86" height="23" d="M264.5,88 h63 a11.5,11.5 0 0 1 11.5,11.5 v0 a11.5,11.5 0 0 1 -11.5,11.5 h-63 a11.5,11.5 0 0 1 -11.5,-11.5 v0 a11.5,11.5 0 0 1 11.5,-11.5"/></clipPath></defs><mask id="satori_om-id-1-1-1"><rect x="254" y="89" width="84" height="21" fill="#fff"/><path width="86" height="23" fill="none" stroke="#000" stroke-width="2" d="M256.368,91.368 A11.5,11.5 0 0 1 264.5,88 h63 a11.5,11.5 0 0 1 11.5,11.5 v0 a11.5,11.5 0 0 1 -11.5,11.5 h-63 a11.5,11.5 0 0 1 -11.5,-11.5 v0 A11.5,11.5 0 0 1 256.368,91.368"/></mask><path x="253" y="88" width="86" height="23" fill="#818cf818" d="M264.5,88 h63 a11.5,11.5 0 0 1 11.5,11.5 v0 a11.5,11.5 0 0 1 -11.5,11.5 h-63 a11.5,11.5 0 0 1 -11.5,-11.5 v0 a11.5,11.5 0 0 1 11.5,-11.5"/><path width="86" height="23" clip-path="url(#satori_bc-id-1-1-1)" fill="none" stroke="#818cf840" stroke-width="2" d="M256.368,91.368 A11.5,11.5 0 0 1 264.5,88 h63 a11.5,11.5 0 0 1 11.5,11.5 v0 a11.5,11.5 0 0 1 -11.5,11.5 h-63 a11.5,11.5 0 0 1 -11.5,-11.5 v0 A11.5,11.5 0 0 1 256.368,91.368"/><g  ><path fill="#818cf8" d="M269.9 104L269.9 104L266.8 104L266.8 95.3L269.9 95.3Q271.2 95.3 272.1 95.8Q273.1 96.3 273.6 97.3Q274.1 98.3 274.1 99.6L274.1 99.6Q274.1 101.0 273.6 102.0Q273.1 103.0 272.1 103.5Q271.2 104 269.9 104ZM268.6 96.8L268.6 102.5L269.8 102.5Q270.6 102.5 271.2 102.2Q271.8 101.9 272.0 101.2Q272.3 100.6 272.3 99.6L272.3 99.6Q272.3 98.7 272.0 98.0Q271.8 97.4 271.2 97.1Q270.6 96.8 269.8 96.8L269.8 96.8L268.6 96.8ZM277.2 104L275.4 104L275.4 97.4L277.2 97.4L277.2 104ZM276.3 96.6L276.3 96.6Q275.9 96.6 275.6 96.3Q275.3 96.1 275.3 95.7L275.3 95.7Q275.3 95.3 275.6 95.1Q275.9 94.8 276.3 94.8L276.3 94.8Q276.7 94.8 277.0 95.0Q277.3 95.3 277.3 95.7L277.3 95.7Q277.3 96.1 277.0 96.3Q276.7 96.6 276.3 96.6ZM281.3 104.1L281.3 104.1Q280.5 104.1 279.9 103.9Q279.3 103.7 278.9 103.2Q278.5 102.8 278.4 102.2L278.4 102.2L280.0 101.9Q280.1 102.4 280.5 102.6Q280.8 102.8 281.3 102.8L281.3 102.8Q281.8 102.8 282.1 102.6Q282.4 102.5 282.4 102.2L282.4 102.2Q282.4 101.9 282.2 101.7Q282.0 101.6 281.6 101.5L281.6 101.5L280.4 101.3Q279.5 101.1 279.0 100.6Q278.5 100.1 278.5 99.4L278.5 99.4Q278.5 98.8 278.9 98.3Q279.2 97.9 279.9 97.6Q280.5 97.4 281.3 97.4L281.3 97.4Q282.1 97.4 282.6 97.6Q283.2 97.8 283.6 98.2Q283.9 98.6 284.0 99.1L284.0 99.1L282.5 99.4Q282.4 99.1 282.1 98.8Q281.8 98.6 281.3 98.6L281.3 98.6Q280.9 98.6 280.6 98.8Q280.3 99.0 280.3 99.3L280.3 99.3Q280.3 99.5 280.5 99.7Q280.7 99.9 281.1 100.0L281.1 100.0L282.3 100.2Q283.3 100.4 283.7 100.8Q284.2 101.3 284.2 102.0L284.2 102.0Q284.2 102.6 283.8 103.1Q283.4 103.6 282.8 103.9Q282.1 104.1 281.3 104.1ZM288.3 104.1L288.3 104.1Q287.3 104.1 286.6 103.7Q285.9 103.3 285.5 102.5Q285.1 101.8 285.1 100.8L285.1 100.8Q285.1 99.7 285.5 99.0Q285.9 98.2 286.6 97.8Q287.3 97.4 288.3 97.4L288.3 97.4Q288.9 97.4 289.4 97.5Q289.9 97.7 290.3 98.0Q290.6 98.2 290.9 98.6Q291.1 99.0 291.2 99.5L291.2 99.5L289.6 99.9Q289.5 99.6 289.4 99.4Q289.3 99.2 289.2 99.0Q289.0 98.9 288.8 98.8Q288.6 98.8 288.3 98.8L288.3 98.8Q287.9 98.8 287.5 99.0Q287.2 99.3 287.1 99.7Q286.9 100.2 286.9 100.7L286.9 100.7Q286.9 101.3 287.1 101.8Q287.2 102.2 287.5 102.5Q287.9 102.7 288.3 102.7L288.3 102.7Q288.6 102.7 288.8 102.7Q289.0 102.6 289.2 102.4Q289.3 102.3 289.4 102.1Q289.6 101.9 289.6 101.6L289.6 101.6L291.2 101.9Q291.1 102.4 290.9 102.8Q290.7 103.2 290.3 103.5Q289.9 103.8 289.4 104.0Q288.9 104.1 288.3 104.1ZM295.4 104.1L295.4 104.1Q294.4 104.1 293.7 103.7Q293.0 103.3 292.6 102.5Q292.2 101.8 292.2 100.8L292.2 100.8Q292.2 99.7 292.6 99.0Q293.0 98.2 293.7 97.8Q294.4 97.4 295.4 97.4L295.4 97.4Q296.4 97.4 297.1 97.8Q297.8 98.2 298.2 99.0Q298.6 99.7 298.6 100.8L298.6 100.8Q298.6 101.8 298.2 102.5Q297.8 103.3 297.1 103.7Q296.4 104.1 295.4 104.1ZM295.4 102.7L295.4 102.7Q295.8 102.7 296.2 102.5Q296.5 102.2 296.6 101.8Q296.8 101.3 296.8 100.7L296.8 100.7Q296.8 100.2 296.6 99.7Q296.5 99.3 296.2 99.0Q295.8 98.8 295.4 98.8L295.4 98.8Q294.9 98.8 294.6 99.0Q294.3 99.3 294.1 99.7Q294.0 100.2 294.0 100.7L294.0 100.7Q294.0 101.3 294.1 101.8Q294.3 102.2 294.6 102.5Q294.9 102.7 295.4 102.7ZM301.6 104L299.8 104L299.8 97.4L301.5 97.4L301.5 98.6L301.6 98.6Q301.8 98.0 302.2 97.7Q302.6 97.4 303.2 97.4L303.2 97.4Q303.3 97.4 303.5 97.4Q303.6 97.4 303.7 97.4L303.7 97.4L303.7 99.0Q303.6 98.9 303.4 98.9Q303.2 98.9 303.0 98.9L303.0 98.9Q302.6 98.9 302.2 99.1Q301.9 99.2 301.7 99.6Q301.6 99.9 301.6 100.3L301.6 100.3L301.6 104ZM307.1 104.1L307.1 104.1Q306.3 104.1 305.7 103.7Q305.1 103.3 304.8 102.6Q304.4 101.8 304.4 100.7L304.4 100.7Q304.4 99.6 304.8 98.9Q305.1 98.1 305.8 97.7Q306.4 97.4 307.1 97.4L307.1 97.4Q307.6 97.4 308.0 97.6Q308.4 97.7 308.6 98.0Q308.8 98.3 308.9 98.6L308.9 98.6L309.0 98.6L309.0 95.3L310.8 95.3L310.8 104L309.0 104L309.0 103.0L308.9 103.0Q308.8 103.2 308.6 103.5Q308.4 103.7 308.0 103.9Q307.6 104.1 307.1 104.1ZM307.6 102.7L307.6 102.7Q308.1 102.7 308.4 102.5Q308.7 102.2 308.9 101.8Q309.0 101.3 309.0 100.7L309.0 100.7Q309.0 100.1 308.9 99.7Q308.7 99.3 308.4 99.0Q308.1 98.8 307.6 98.8L307.6 98.8Q307.2 98.8 306.9 99.0Q306.5 99.3 306.4 99.7Q306.2 100.2 306.2 100.7L306.2 100.7Q306.2 101.3 306.4 101.8Q306.5 102.2 306.9 102.4Q307.2 102.7 307.6 102.7ZM313.5 104.1L313.5 104.1Q313.1 104.1 312.8 103.8Q312.5 103.5 312.5 103.1L312.5 103.1Q312.5 102.7 312.8 102.4Q313.1 102.1 313.5 102.1L313.5 102.1Q313.9 102.1 314.2 102.4Q314.5 102.7 314.5 103.1L314.5 103.1Q314.5 103.5 314.2 103.8Q313.9 104.1 313.5 104.1ZM316.3 104.3L316.3 97.4L318.0 97.4L318.0 104.3Q318.0 105.1 317.7 105.5Q317.4 106.0 316.9 106.2Q316.3 106.4 315.6 106.4L315.6 106.4L315.2 106.4L315.2 105.1L315.5 105.1Q315.9 105.1 316.1 104.9Q316.3 104.7 316.3 104.3L316.3 104.3ZM317.1 96.6L317.1 96.6Q316.7 96.6 316.5 96.3Q316.2 96.1 316.2 95.7L316.2 95.7Q316.2 95.3 316.5 95.1Q316.7 94.8 317.1 94.8L317.1 94.8Q317.5 94.8 317.8 95.0Q318.1 95.3 318.1 95.7L318.1 95.7Q318.1 96.1 317.8 96.3Q317.5 96.6 317.1 96.6ZM322.1 104.1L322.1 104.1Q321.3 104.1 320.7 103.9Q320.1 103.7 319.7 103.2Q319.3 102.8 319.2 102.2L319.2 102.2L320.9 101.9Q321.0 102.4 321.3 102.6Q321.6 102.8 322.2 102.8L322.2 102.8Q322.7 102.8 323.0 102.6Q323.3 102.5 323.3 102.2L323.3 102.2Q323.3 101.9 323.0 101.7Q322.8 101.6 322.4 101.5L322.4 101.5L321.3 101.3Q320.3 101.1 319.9 100.6Q319.4 100.1 319.4 99.4L319.4 99.4Q319.4 98.8 319.7 98.3Q320.1 97.9 320.7 97.6Q321.3 97.4 322.2 97.4L322.2 97.4Q322.9 97.4 323.5 97.6Q324.1 97.8 324.4 98.2Q324.8 98.6 324.9 99.1L324.9 99.1L323.3 99.4Q323.2 99.1 322.9 98.8Q322.7 98.6 322.2 98.6L322.2 98.6Q321.7 98.6 321.4 98.8Q321.2 99.0 321.2 99.3L321.2 99.3Q321.2 99.5 321.3 99.7Q321.5 99.9 322.0 100.0L322.0 100.0L323.2 100.2Q324.1 100.4 324.6 100.8Q325.1 101.3 325.1 102.0L325.1 102.0Q325.1 102.6 324.7 103.1Q324.3 103.6 323.6 103.9Q323.0 104.1 322.1 104.1Z "/></g><defs><clipPath id="satori_bc-id-1-1-2"><path x="347" y="88" width="101" height="23" d="M358.5,88 h78 a11.5,11.5 0 0 1 11.5,11.5 v0 a11.5,11.5 0 0 1 -11.5,11.5 h-78 a11.5,11.5 0 0 1 -11.5,-11.5 v0 a11.5,11.5 0 0 1 11.5,-11.5"/></clipPath></defs><mask id="satori_om-id-1-1-2"><rect x="348" y="89" width="99" height="21" fill="#fff"/><path width="101" height="23" fill="none" stroke="#000" stroke-width="2" d="M350.368,91.368 A11.5,11.5 0 0 1 358.5,88 h78 a11.5,11.5 0 0 1 11.5,11.5 v0 a11.5,11.5 0 0 1 -11.5,11.5 h-78 a11.5,11.5 0 0 1 -11.5,-11.5 v0 A11.5,11.5 0 0 1 350.368,91.368"/></mask><path x="347" y="88" width="101" height="23" fill="#06b6d418" d="M358.5,88 h78 a11.5,11.5 0 0 1 11.5,11.5 v0 a11.5,11.5 0 0 1 -11.5,11.5 h-78 a11.5,11.5 0 0 1 -11.5,-11.5 v0 a11.5,11.5 0 0 1 11.5,-11.5"/><path width="101" height="23" clip-path="url(#satori_bc-id-1-1-2)" fill="none" stroke="#06b6d440" stroke-width="2" d="M350.368,91.368 A11.5,11.5 0 0 1 358.5,88 h78 a11.5,11.5 0 0 1 11.5,11.5 v0 a11.5,11.5 0 0 1 -11.5,11.5 h-78 a11.5,11.5 0 0 1 -11.5,-11.5 v0 A11.5,11.5 0 0 1 350.368,91.368"/><g  ><path fill="#06b6d4" d="M363.1 96.8L360.4 96.8L360.4 95.3L367.6 95.3L367.6 96.8L364.9 96.8L364.9 104L363.1 104L363.1 96.8ZM370.6 104.1L370.6 104.1Q370.0 104.1 369.5 103.9Q369.0 103.7 368.7 103.3Q368.4 102.8 368.4 102.2L368.4 102.2Q368.4 101.6 368.6 101.3Q368.8 100.9 369.2 100.7Q369.5 100.4 370.0 100.3Q370.4 100.2 370.9 100.2L370.9 100.2Q371.4 100.1 371.8 100.0Q372.1 100.0 372.3 99.9Q372.5 99.8 372.5 99.6L372.5 99.6L372.5 99.5Q372.5 99.3 372.4 99.1Q372.2 98.9 372.0 98.8Q371.8 98.7 371.4 98.7L371.4 98.7Q371.1 98.7 370.9 98.8Q370.6 98.9 370.4 99.0Q370.3 99.2 370.2 99.4L370.2 99.4L368.6 99.2Q368.8 98.6 369.2 98.2Q369.6 97.8 370.1 97.6Q370.7 97.4 371.4 97.4L371.4 97.4Q372.0 97.4 372.5 97.5Q373.0 97.6 373.4 97.9Q373.8 98.1 374.0 98.6Q374.2 99.0 374.2 99.6L374.2 99.6L374.2 104L372.6 104L372.6 103.1L372.5 103.1Q372.3 103.4 372.1 103.6Q371.8 103.9 371.4 104.0Q371.1 104.1 370.6 104.1ZM371.1 102.9L371.1 102.9Q371.5 102.9 371.8 102.7Q372.1 102.6 372.3 102.3Q372.5 102.0 372.5 101.7L372.5 101.7L372.5 100.9Q372.4 101.0 372.2 101.1Q372.1 101.1 371.9 101.1Q371.7 101.2 371.5 101.2Q371.3 101.2 371.2 101.2L371.2 101.2Q370.9 101.3 370.6 101.4Q370.4 101.5 370.2 101.7Q370.1 101.8 370.1 102.1L370.1 102.1Q370.1 102.4 370.2 102.5Q370.4 102.7 370.6 102.8Q370.8 102.9 371.1 102.9ZM377.5 104L375.7 104L375.7 97.4L377.5 97.4L377.5 104ZM376.6 96.6L376.6 96.6Q376.2 96.6 375.9 96.3Q375.6 96.1 375.6 95.7L375.6 95.7Q375.6 95.3 375.9 95.1Q376.2 94.8 376.6 94.8L376.6 94.8Q377.0 94.8 377.3 95.0Q377.6 95.3 377.6 95.7L377.6 95.7Q377.6 96.1 377.3 96.3Q377.0 96.6 376.6 96.6ZM379.0 95.3L380.7 95.3L380.7 104L379.0 104L379.0 95.3ZM385.4 104L383.6 104L381.7 97.4L383.5 97.4L384.1 99.9Q384.2 100.5 384.4 101.3L384.4 101.3Q384.5 101.8 384.6 102.4L384.6 102.4Q384.7 101.8 384.8 101.3L384.8 101.3Q385.0 100.5 385.2 99.9L385.2 99.9L385.8 97.4L387.4 97.4L388.0 99.9Q388.1 100.5 388.3 101.3L388.3 101.3Q388.4 101.8 388.5 102.4L388.5 102.4Q388.6 101.8 388.8 101.3L388.8 101.3Q388.9 100.5 389.1 99.9L389.1 99.9L389.6 97.4L391.5 97.4L389.6 104L387.8 104L387.0 101.5Q386.9 101.1 386.8 100.6Q386.7 100.2 386.6 99.7L386.6 99.7Q386.6 99.6 386.6 99.5L386.6 99.5Q386.6 99.6 386.5 99.7L386.5 99.7Q386.4 100.2 386.3 100.6Q386.2 101.1 386.1 101.5L386.1 101.5L385.4 104ZM394.2 104L392.4 104L392.4 97.4L394.2 97.4L394.2 104ZM393.3 96.6L393.3 96.6Q392.9 96.6 392.6 96.3Q392.3 96.1 392.3 95.7L392.3 95.7Q392.3 95.3 392.6 95.1Q392.9 94.8 393.3 94.8L393.3 94.8Q393.7 94.8 394.0 95.0Q394.3 95.3 394.3 95.7L394.3 95.7Q394.3 96.1 394.0 96.3Q393.7 96.6 393.3 96.6ZM397.4 100.2L397.4 100.2L397.4 104L395.7 104L395.7 97.4L397.3 97.4L397.4 98.8Q397.6 98.2 398.1 97.8L398.1 97.8Q398.6 97.4 399.4 97.4L399.4 97.4Q400.1 97.4 400.6 97.7Q401.1 98.0 401.4 98.5Q401.7 99.1 401.7 99.8L401.7 99.8L401.7 104L399.9 104L399.9 100.1Q399.9 99.5 399.6 99.2Q399.3 98.8 398.7 98.8L398.7 98.8Q398.3 98.8 398.1 99.0Q397.8 99.2 397.6 99.5Q397.4 99.8 397.4 100.2ZM405.5 104.1L405.5 104.1Q404.8 104.1 404.2 103.7Q403.6 103.3 403.2 102.6Q402.9 101.8 402.9 100.7L402.9 100.7Q402.9 99.6 403.2 98.9Q403.6 98.1 404.2 97.7Q404.8 97.4 405.5 97.4L405.5 97.4Q406.1 97.4 406.5 97.6Q406.8 97.7 407.1 98.0Q407.3 98.3 407.4 98.6L407.4 98.6L407.5 98.6L407.5 95.3L409.2 95.3L409.2 104L407.5 104L407.5 103.0L407.4 103.0Q407.3 103.2 407.1 103.5Q406.8 103.7 406.5 103.9Q406.1 104.1 405.5 104.1ZM406.1 102.7L406.1 102.7Q406.5 102.7 406.9 102.5Q407.2 102.2 407.3 101.8Q407.5 101.3 407.5 100.7L407.5 100.7Q407.5 100.1 407.3 99.7Q407.2 99.3 406.9 99.0Q406.5 98.8 406.1 98.8L406.1 98.8Q405.6 98.8 405.3 99.0Q405 99.3 404.8 99.7Q404.7 100.2 404.7 100.7L404.7 100.7Q404.7 101.3 404.8 101.8Q405.0 102.2 405.3 102.4Q405.6 102.7 406.1 102.7ZM414.6 104.1L414.6 104.1Q413.4 104.1 412.5 103.6Q411.6 103.1 411.0 102.1Q410.5 101.1 410.5 99.6L410.5 99.6Q410.5 98.2 411.1 97.2Q411.6 96.2 412.5 95.7Q413.4 95.2 414.6 95.2L414.6 95.2Q415.3 95.2 416.0 95.4Q416.6 95.6 417.1 96.0Q417.6 96.4 417.9 96.9Q418.2 97.5 418.3 98.3L418.3 98.3L416.5 98.3Q416.5 97.9 416.3 97.6Q416.1 97.3 415.9 97.1Q415.6 96.9 415.3 96.8Q415.0 96.7 414.6 96.7L414.6 96.7Q413.9 96.7 413.4 97.1Q412.9 97.4 412.6 98.1Q412.3 98.7 412.3 99.6L412.3 99.6Q412.3 100.6 412.6 101.2Q412.9 101.9 413.4 102.2Q413.9 102.5 414.6 102.5L414.6 102.5Q415.0 102.5 415.3 102.4Q415.6 102.3 415.9 102.1Q416.1 101.9 416.3 101.7Q416.5 101.4 416.5 101.0L416.5 101.0L418.3 101.0Q418.3 101.6 418.0 102.2Q417.7 102.7 417.2 103.2Q416.7 103.6 416.1 103.9Q415.4 104.1 414.6 104.1ZM422.8 104.1L422.8 104.1Q421.8 104.1 421.0 103.8Q420.2 103.5 419.8 102.9Q419.4 102.2 419.3 101.3L419.3 101.3L421.1 101.3Q421.1 101.7 421.3 102.0Q421.6 102.3 422.0 102.5Q422.3 102.6 422.8 102.6L422.8 102.6Q423.3 102.6 423.7 102.5Q424.0 102.3 424.2 102.1Q424.4 101.8 424.4 101.5L424.4 101.5Q424.4 101.2 424.2 101.0Q424.0 100.8 423.7 100.7Q423.4 100.5 422.9 100.4L422.9 100.4L421.9 100.2Q420.8 99.9 420.2 99.3Q419.6 98.7 419.6 97.8L419.6 97.8Q419.6 97.0 420.0 96.4Q420.4 95.8 421.2 95.5Q421.9 95.2 422.9 95.2L422.9 95.2Q423.8 95.2 424.5 95.5Q425.3 95.8 425.7 96.4Q426.1 97.0 426.1 97.8L426.1 97.8L424.4 97.8Q424.3 97.2 423.9 96.9Q423.5 96.7 422.8 96.7L422.8 96.7Q422.4 96.7 422.1 96.8Q421.7 96.9 421.6 97.1Q421.4 97.4 421.4 97.7L421.4 97.7Q421.4 98.0 421.6 98.2Q421.8 98.4 422.1 98.5Q422.4 98.7 422.8 98.8L422.8 98.8L423.6 99.0Q424.1 99.1 424.6 99.3Q425.1 99.5 425.5 99.8Q425.8 100.1 426.0 100.5Q426.2 101.0 426.2 101.5L426.2 101.5Q426.2 102.3 425.8 102.9Q425.4 103.5 424.7 103.8Q423.9 104.1 422.8 104.1ZM430.7 104.1L430.7 104.1Q429.6 104.1 428.9 103.8Q428.1 103.5 427.7 102.9Q427.2 102.2 427.2 101.3L427.2 101.3L428.9 101.3Q429.0 101.7 429.2 102.0Q429.4 102.3 429.8 102.5Q430.2 102.6 430.7 102.6L430.7 102.6Q431.2 102.6 431.5 102.5Q431.9 102.3 432.1 102.1Q432.3 101.8 432.3 101.5L432.3 101.5Q432.3 101.2 432.1 101.0Q431.9 100.8 431.6 100.7Q431.2 100.5 430.8 100.4L430.8 100.4L429.8 100.2Q428.7 99.9 428.1 99.3Q427.4 98.7 427.4 97.8L427.4 97.8Q427.4 97.0 427.9 96.4Q428.3 95.8 429.0 95.5Q429.8 95.2 430.7 95.2L430.7 95.2Q431.7 95.2 432.4 95.5Q433.1 95.8 433.5 96.4Q433.9 97.0 433.9 97.8L433.9 97.8L432.2 97.8Q432.2 97.2 431.8 96.9Q431.4 96.7 430.7 96.7L430.7 96.7Q430.2 96.7 429.9 96.8Q429.6 96.9 429.4 97.1Q429.3 97.4 429.3 97.7L429.3 97.7Q429.3 98.0 429.5 98.2Q429.7 98.4 430.0 98.5Q430.3 98.7 430.7 98.8L430.7 98.8L431.5 99.0Q432.0 99.1 432.5 99.3Q433.0 99.5 433.3 99.8Q433.7 100.1 433.9 100.5Q434.1 101.0 434.1 101.5L434.1 101.5Q434.1 102.3 433.7 102.9Q433.3 103.5 432.5 103.8Q431.8 104.1 430.7 104.1Z "/></g><defs><clipPath id="satori_bc-id-1-1-3"><path x="456" y="88" width="67" height="23" d="M467.5,88 h44 a11.5,11.5 0 0 1 11.5,11.5 v0 a11.5,11.5 0 0 1 -11.5,11.5 h-44 a11.5,11.5 0 0 1 -11.5,-11.5 v0 a11.5,11.5 0 0 1 11.5,-11.5"/></clipPath></defs><mask id="satori_om-id-1-1-3"><rect x="457" y="89" width="65" height="21" fill="#fff"/><path width="67" height="23" fill="none" stroke="#000" stroke-width="2" d="M459.368,91.368 A11.5,11.5 0 0 1 467.5,88 h44 a11.5,11.5 0 0 1 11.5,11.5 v0 a11.5,11.5 0 0 1 -11.5,11.5 h-44 a11.5,11.5 0 0 1 -11.5,-11.5 v0 A11.5,11.5 0 0 1 459.368,91.368"/></mask><path x="456" y="88" width="67" height="23" fill="#a78bfa18" d="M467.5,88 h44 a11.5,11.5 0 0 1 11.5,11.5 v0 a11.5,11.5 0 0 1 -11.5,11.5 h-44 a11.5,11.5 0 0 1 -11.5,-11.5 v0 a11.5,11.5 0 0 1 11.5,-11.5"/><path width="67" height="23" clip-path="url(#satori_bc-id-1-1-3)" fill="none" stroke="#a78bfa40" stroke-width="2" d="M459.368,91.368 A11.5,11.5 0 0 1 467.5,88 h44 a11.5,11.5 0 0 1 11.5,11.5 v0 a11.5,11.5 0 0 1 -11.5,11.5 h-44 a11.5,11.5 0 0 1 -11.5,-11.5 v0 A11.5,11.5 0 0 1 459.368,91.368"/><g  ><path fill="#a78bfa" d="M473.6 104.1L473.6 104.1Q472.5 104.1 471.5 103.6Q470.6 103.1 470.1 102.1Q469.6 101.1 469.6 99.6L469.6 99.6Q469.6 98.2 470.1 97.2Q470.6 96.2 471.5 95.7Q472.5 95.2 473.6 95.2L473.6 95.2Q474.8 95.2 475.7 95.7Q476.6 96.2 477.2 97.2Q477.7 98.2 477.7 99.6L477.7 99.6Q477.7 101.1 477.2 102.1Q476.6 103.1 475.7 103.6Q474.8 104.1 473.6 104.1ZM473.6 102.5L473.6 102.5Q474.3 102.5 474.8 102.2Q475.3 101.9 475.6 101.2Q475.9 100.6 475.9 99.6L475.9 99.6Q475.9 98.7 475.6 98.0Q475.3 97.4 474.8 97.1Q474.3 96.7 473.6 96.7L473.6 96.7Q472.9 96.7 472.4 97.1Q471.9 97.4 471.6 98.1Q471.4 98.7 471.4 99.6L471.4 99.6Q471.4 100.6 471.6 101.2Q471.9 101.9 472.4 102.2Q472.9 102.5 473.6 102.5ZM479.0 95.3L480.8 95.3L480.8 104L479.0 104L479.0 95.3ZM482.2 95.3L484.0 95.3L484.0 104L482.2 104L482.2 95.3ZM487.3 104.1L487.3 104.1Q486.7 104.1 486.2 103.9Q485.7 103.7 485.4 103.3Q485.1 102.8 485.1 102.2L485.1 102.2Q485.1 101.6 485.4 101.3Q485.6 100.9 485.9 100.7Q486.3 100.4 486.7 100.3Q487.1 100.2 487.6 100.2L487.6 100.2Q488.2 100.1 488.5 100.0Q488.9 100.0 489.0 99.9Q489.2 99.8 489.2 99.6L489.2 99.6L489.2 99.5Q489.2 99.3 489.1 99.1Q489.0 98.9 488.7 98.8Q488.5 98.7 488.2 98.7L488.2 98.7Q487.8 98.7 487.6 98.8Q487.3 98.9 487.2 99.0Q487.0 99.2 486.9 99.4L486.9 99.4L485.3 99.2Q485.5 98.6 485.9 98.2Q486.3 97.8 486.9 97.6Q487.5 97.4 488.2 97.4L488.2 97.4Q488.7 97.4 489.2 97.5Q489.7 97.6 490.1 97.9Q490.5 98.1 490.7 98.6Q491.0 99.0 491.0 99.6L491.0 99.6L491.0 104L489.3 104L489.3 103.1L489.2 103.1Q489.1 103.4 488.8 103.6Q488.6 103.9 488.2 104.0Q487.8 104.1 487.3 104.1ZM487.8 102.9L487.8 102.9Q488.2 102.9 488.6 102.7Q488.9 102.6 489.0 102.3Q489.2 102.0 489.2 101.7L489.2 101.7L489.2 100.9Q489.1 101.0 489.0 101.1Q488.8 101.1 488.6 101.1Q488.4 101.2 488.3 101.2Q488.1 101.2 487.9 101.2L487.9 101.2Q487.6 101.3 487.4 101.4Q487.1 101.5 487.0 101.7Q486.8 101.8 486.8 102.1L486.8 102.1Q486.8 102.4 487.0 102.5Q487.1 102.7 487.3 102.8Q487.5 102.9 487.8 102.9ZM494.2 104L492.5 104L492.5 97.4L494.1 97.4L494.2 98.7Q494.3 98.4 494.5 98.1L494.5 98.1Q494.8 97.7 495.2 97.5Q495.6 97.3 496.0 97.3L496.0 97.3Q496.7 97.3 497.2 97.8L497.2 97.8Q497.5 98.2 497.7 98.8L497.7 98.8Q497.9 98.4 498.1 98.1L498.1 98.1Q498.4 97.7 498.9 97.5Q499.3 97.3 499.8 97.3L499.8 97.3Q500.4 97.3 500.9 97.6Q501.4 97.9 501.6 98.4Q501.9 98.9 501.9 99.6L501.9 99.6L501.9 104L500.2 104L500.2 99.9Q500.2 99.4 499.9 99.1Q499.6 98.8 499.1 98.8L499.1 98.8Q498.8 98.8 498.5 99.0Q498.3 99.1 498.2 99.4Q498.0 99.6 498.0 100.0L498.0 100.0L498.0 104L496.3 104L496.3 99.9Q496.3 99.4 496.1 99.1Q495.8 98.8 495.3 98.8L495.3 98.8Q495.0 98.8 494.8 99.0Q494.5 99.1 494.4 99.4Q494.2 99.6 494.2 100.0L494.2 100.0L494.2 104ZM505.2 104.1L505.2 104.1Q504.6 104.1 504.1 103.9Q503.6 103.7 503.4 103.3Q503.1 102.8 503.1 102.2L503.1 102.2Q503.1 101.6 503.3 101.3Q503.5 100.9 503.8 100.7Q504.2 100.4 504.6 100.3Q505.1 100.2 505.5 100.2L505.5 100.2Q506.1 100.1 506.5 100.0Q506.8 100.0 507.0 99.9Q507.1 99.8 507.1 99.6L507.1 99.6L507.1 99.5Q507.1 99.3 507.0 99.1Q506.9 98.9 506.7 98.8Q506.4 98.7 506.1 98.7L506.1 98.7Q505.8 98.7 505.5 98.8Q505.3 98.9 505.1 99.0Q504.9 99.2 504.9 99.4L504.9 99.4L503.3 99.2Q503.4 98.6 503.8 98.2Q504.2 97.8 504.8 97.6Q505.4 97.4 506.1 97.4L506.1 97.4Q506.6 97.4 507.1 97.5Q507.6 97.6 508.0 97.9Q508.4 98.1 508.7 98.6Q508.9 99.0 508.9 99.6L508.9 99.6L508.9 104L507.2 104L507.2 103.1L507.2 103.1Q507.0 103.4 506.7 103.6Q506.5 103.9 506.1 104.0Q505.7 104.1 505.2 104.1ZM505.7 102.9L505.7 102.9Q506.2 102.9 506.5 102.7Q506.8 102.6 507.0 102.3Q507.1 102.0 507.1 101.7L507.1 101.7L507.1 100.9Q507.1 101.0 506.9 101.1Q506.7 101.1 506.6 101.1Q506.4 101.2 506.2 101.2Q506.0 101.2 505.8 101.2L505.8 101.2Q505.5 101.3 505.3 101.4Q505.0 101.5 504.9 101.7Q504.8 101.8 504.8 102.1L504.8 102.1Q504.8 102.4 504.9 102.5Q505.0 102.7 505.2 102.8Q505.5 102.9 505.7 102.9Z "/></g><defs><clipPath id="satori_bc-id-1-1-4"><path x="531" y="88" width="84" height="23" d="M542.5,88 h61 a11.5,11.5 0 0 1 11.5,11.5 v0 a11.5,11.5 0 0 1 -11.5,11.5 h-61 a11.5,11.5 0 0 1 -11.5,-11.5 v0 a11.5,11.5 0 0 1 11.5,-11.5"/></clipPath></defs><mask id="satori_om-id-1-1-4"><rect x="532" y="89" width="82" height="21" fill="#fff"/><path width="84" height="23" fill="none" stroke="#000" stroke-width="2" d="M534.368,91.368 A11.5,11.5 0 0 1 542.5,88 h61 a11.5,11.5 0 0 1 11.5,11.5 v0 a11.5,11.5 0 0 1 -11.5,11.5 h-61 a11.5,11.5 0 0 1 -11.5,-11.5 v0 A11.5,11.5 0 0 1 534.368,91.368"/></mask><path x="531" y="88" width="84" height="23" fill="#4ade8018" d="M542.5,88 h61 a11.5,11.5 0 0 1 11.5,11.5 v0 a11.5,11.5 0 0 1 -11.5,11.5 h-61 a11.5,11.5 0 0 1 -11.5,-11.5 v0 a11.5,11.5 0 0 1 11.5,-11.5"/><path width="84" height="23" clip-path="url(#satori_bc-id-1-1-4)" fill="none" stroke="#4ade8040" stroke-width="2" d="M534.368,91.368 A11.5,11.5 0 0 1 542.5,88 h61 a11.5,11.5 0 0 1 11.5,11.5 v0 a11.5,11.5 0 0 1 -11.5,11.5 h-61 a11.5,11.5 0 0 1 -11.5,-11.5 v0 A11.5,11.5 0 0 1 534.368,91.368"/><g  ><path fill="#4ade80" d="M546.6 104L544.8 104L544.8 95.3L547.5 95.3L549.0 99.3Q549.0 99.6 549.2 100.0Q549.3 100.4 549.4 101.0L549.4 101.0Q549.5 101.5 549.6 101.9L549.6 101.9Q549.7 101.5 549.8 101.0L549.8 101.0Q549.9 100.5 550.0 100.0Q550.2 99.6 550.2 99.3L550.2 99.3L551.6 95.3L554.4 95.3L554.4 104L552.6 104L552.6 99.9Q552.6 99.6 552.6 99.2Q552.6 98.7 552.6 98.2Q552.6 97.8 552.7 97.3L552.7 97.3Q552.7 97.0 552.7 96.8L552.7 96.8Q552.6 97.1 552.5 97.3L552.5 97.3Q552.4 97.8 552.3 98.3Q552.1 98.8 552.0 99.2Q551.9 99.6 551.8 99.9L551.8 99.9L550.3 104L548.8 104L547.4 99.9Q547.3 99.6 547.2 99.2Q547.0 98.8 546.9 98.3Q546.8 97.8 546.6 97.3L546.6 97.3Q546.6 97.1 546.5 96.9L546.5 96.9Q546.5 97.0 546.5 97.2L546.5 97.2Q546.5 97.7 546.5 98.2Q546.5 98.7 546.6 99.2Q546.6 99.6 546.6 99.9L546.6 99.9L546.6 104ZM558.9 104.1L558.9 104.1Q557.9 104.1 557.2 103.7Q556.4 103.3 556.0 102.5Q555.7 101.8 555.7 100.8L555.7 100.8Q555.7 99.7 556.0 99.0Q556.4 98.2 557.2 97.8Q557.9 97.4 558.9 97.4L558.9 97.4Q559.8 97.4 560.6 97.8Q561.3 98.2 561.7 99.0Q562.1 99.7 562.1 100.8L562.1 100.8Q562.1 101.8 561.7 102.5Q561.3 103.3 560.6 103.7Q559.8 104.1 558.9 104.1ZM558.9 102.7L558.9 102.7Q559.3 102.7 559.6 102.5Q560.0 102.2 560.1 101.8Q560.3 101.3 560.3 100.7L560.3 100.7Q560.3 100.2 560.1 99.7Q560.0 99.3 559.6 99.0Q559.3 98.8 558.9 98.8L558.9 98.8Q558.4 98.8 558.1 99.0Q557.8 99.3 557.6 99.7Q557.4 100.2 557.4 100.7L557.4 100.7Q557.4 101.3 557.6 101.8Q557.8 102.2 558.1 102.5Q558.4 102.7 558.9 102.7ZM565.0 100.2L565.0 100.2L565.0 104L563.3 104L563.3 97.4L564.9 97.4L565.0 98.8Q565.2 98.2 565.7 97.8L565.7 97.8Q566.2 97.4 567.0 97.4L567.0 97.4Q567.7 97.4 568.2 97.7Q568.7 98.0 569.0 98.5Q569.3 99.1 569.3 99.8L569.3 99.8L569.3 104L567.5 104L567.5 100.1Q567.5 99.5 567.2 99.2Q566.9 98.8 566.3 98.8L566.3 98.8Q565.9 98.8 565.7 99.0Q565.4 99.2 565.2 99.5Q565.0 99.8 565.0 100.2ZM573.7 106.6L573.7 106.6Q572.9 106.6 572.2 106.4Q571.6 106.2 571.3 105.8Q570.9 105.4 570.7 105.0L570.7 105.0L572.2 104.6Q572.3 104.7 572.5 104.9Q572.7 105.1 573.0 105.2Q573.2 105.3 573.7 105.3L573.7 105.3Q574.3 105.3 574.7 105.0Q575.1 104.7 575.1 104.0L575.1 104.0L575.1 102.8L575.0 102.8Q574.8 103.1 574.6 103.3Q574.4 103.6 574.0 103.8Q573.7 103.9 573.2 103.9L573.2 103.9Q572.4 103.9 571.8 103.6Q571.2 103.2 570.8 102.5Q570.5 101.8 570.5 100.7L570.5 100.7Q570.5 99.6 570.9 98.9Q571.2 98.1 571.8 97.7Q572.4 97.4 573.2 97.4L573.2 97.4Q573.7 97.4 574.1 97.6Q574.5 97.7 574.7 98.0Q574.9 98.3 575.0 98.6L575.0 98.6L575.1 98.6L575.1 97.4L576.8 97.4L576.8 103.9Q576.8 104.8 576.4 105.4Q576.0 106.0 575.3 106.3Q574.6 106.6 573.7 106.6ZM573.7 102.6L573.7 102.6Q574.2 102.6 574.5 102.3Q574.8 102.1 574.9 101.7Q575.1 101.3 575.1 100.7L575.1 100.7Q575.1 100.1 574.9 99.7Q574.8 99.3 574.5 99.0Q574.2 98.8 573.7 98.8L573.7 98.8Q573.2 98.8 572.9 99.0Q572.6 99.3 572.5 99.7Q572.3 100.1 572.3 100.7L572.3 100.7Q572.3 101.3 572.5 101.7Q572.6 102.1 572.9 102.3Q573.2 102.6 573.7 102.6ZM581.3 104.1L581.3 104.1Q580.3 104.1 579.6 103.7Q578.8 103.3 578.5 102.5Q578.1 101.8 578.1 100.8L578.1 100.8Q578.1 99.7 578.5 99.0Q578.8 98.2 579.6 97.8Q580.3 97.4 581.3 97.4L581.3 97.4Q582.3 97.4 583.0 97.8Q583.7 98.2 584.1 99.0Q584.5 99.7 584.5 100.8L584.5 100.8Q584.5 101.8 584.1 102.5Q583.7 103.3 583.0 103.7Q582.3 104.1 581.3 104.1ZM581.3 102.7L581.3 102.7Q581.7 102.7 582.1 102.5Q582.4 102.2 582.5 101.8Q582.7 101.3 582.7 100.7L582.7 100.7Q582.7 100.2 582.5 99.7Q582.4 99.3 582.1 99.0Q581.7 98.8 581.3 98.8L581.3 98.8Q580.8 98.8 580.5 99.0Q580.2 99.3 580.0 99.7Q579.9 100.2 579.9 100.7L579.9 100.7Q579.9 101.3 580.0 101.8Q580.2 102.2 580.5 102.5Q580.8 102.7 581.3 102.7ZM588.8 104L588.8 104L585.7 104L585.7 95.3L588.8 95.3Q590.2 95.3 591.1 95.8Q592.0 96.3 592.6 97.3Q593.1 98.3 593.1 99.6L593.1 99.6Q593.1 101.0 592.6 102.0Q592.0 103.0 591.1 103.5Q590.1 104 588.8 104ZM587.5 96.8L587.5 102.5L588.7 102.5Q589.6 102.5 590.1 102.2Q590.7 101.9 591.0 101.2Q591.3 100.6 591.3 99.6L591.3 99.6Q591.3 98.7 591.0 98.0Q590.7 97.4 590.1 97.1Q589.6 96.8 588.7 96.8L588.7 96.8L587.5 96.8ZM598.1 104L594.4 104L594.4 95.3L597.9 95.3Q598.8 95.3 599.5 95.6Q600.1 95.8 600.4 96.4Q600.8 96.9 600.8 97.5L600.8 97.5Q600.8 98.0 600.5 98.4Q600.3 98.8 600.0 99.0Q599.6 99.3 599.2 99.4L599.2 99.4L599.2 99.5Q599.7 99.5 600.1 99.8Q600.5 100.0 600.8 100.5Q601.1 100.9 601.1 101.6L601.1 101.6Q601.1 102.3 600.8 102.8Q600.4 103.4 599.7 103.7Q599.1 104 598.1 104L598.1 104ZM596.2 100.2L596.2 102.5L597.7 102.5Q598.5 102.5 598.9 102.2Q599.3 101.9 599.3 101.4L599.3 101.4Q599.3 101.1 599.1 100.8Q598.9 100.5 598.6 100.3Q598.2 100.2 597.8 100.2L597.8 100.2L596.2 100.2ZM596.2 96.7L596.2 98.9L597.6 98.9Q598.0 98.9 598.3 98.8Q598.6 98.7 598.8 98.4Q598.9 98.2 598.9 97.8L598.9 97.8Q598.9 97.3 598.6 97.0Q598.3 96.7 597.6 96.7L597.6 96.7L596.2 96.7Z "/></g><defs><clipPath id="satori_bc-id-1-1-5"><path x="623" y="88" width="43" height="23" d="M634.5,88 h20 a11.5,11.5 0 0 1 11.5,11.5 v0 a11.5,11.5 0 0 1 -11.5,11.5 h-20 a11.5,11.5 0 0 1 -11.5,-11.5 v0 a11.5,11.5 0 0 1 11.5,-11.5"/></clipPath></defs><mask id="satori_om-id-1-1-5"><rect x="624" y="89" width="41" height="21" fill="#fff"/><path width="43" height="23" fill="none" stroke="#000" stroke-width="2" d="M626.368,91.368 A11.5,11.5 0 0 1 634.5,88 h20 a11.5,11.5 0 0 1 11.5,11.5 v0 a11.5,11.5 0 0 1 -11.5,11.5 h-20 a11.5,11.5 0 0 1 -11.5,-11.5 v0 A11.5,11.5 0 0 1 626.368,91.368"/></mask><path x="623" y="88" width="43" height="23" fill="#fb923c18" d="M634.5,88 h20 a11.5,11.5 0 0 1 11.5,11.5 v0 a11.5,11.5 0 0 1 -11.5,11.5 h-20 a11.5,11.5 0 0 1 -11.5,-11.5 v0 a11.5,11.5 0 0 1 11.5,-11.5"/><path width="43" height="23" clip-path="url(#satori_bc-id-1-1-5)" fill="none" stroke="#fb923c40" stroke-width="2" d="M626.368,91.368 A11.5,11.5 0 0 1 634.5,88 h20 a11.5,11.5 0 0 1 11.5,11.5 v0 a11.5,11.5 0 0 1 -11.5,11.5 h-20 a11.5,11.5 0 0 1 -11.5,-11.5 v0 A11.5,11.5 0 0 1 626.368,91.368"/><g  ><path fill="#fb923c" d="M640.7 104.1L640.7 104.1Q639.4 104.1 638.5 103.6Q637.6 103.0 637.1 102.0Q636.6 101.0 636.6 99.6L636.6 99.6Q636.6 98.2 637.1 97.2Q637.6 96.2 638.5 95.7Q639.5 95.2 640.6 95.2L640.6 95.2Q641.4 95.2 642.0 95.4Q642.6 95.6 643.1 96.0Q643.6 96.4 643.9 96.9Q644.2 97.4 644.3 98.1L644.3 98.1L642.5 98.1Q642.4 97.8 642.3 97.5Q642.1 97.3 641.9 97.1Q641.6 96.9 641.3 96.8Q641.0 96.7 640.6 96.7L640.6 96.7Q640.0 96.7 639.5 97.1Q638.9 97.4 638.7 98.1Q638.4 98.7 638.4 99.6Q638.4 100.6 638.7 101.2Q638.9 101.8 639.5 102.2Q640.0 102.5 640.7 102.5L640.7 102.5Q641.3 102.5 641.8 102.3Q642.2 102.1 642.5 101.6L642.5 101.6Q642.7 101.2 642.7 100.7L642.7 100.7L640.8 100.7L640.8 99.3L644.4 99.3L644.4 100.4Q644.4 101.6 643.9 102.4Q643.5 103.2 642.6 103.7Q641.8 104.1 640.7 104.1ZM647.5 104L645.8 104L645.8 97.4L647.5 97.4L647.5 104ZM646.6 96.6L646.6 96.6Q646.2 96.6 646.0 96.3Q645.7 96.1 645.7 95.7L645.7 95.7Q645.7 95.3 646.0 95.1Q646.2 94.8 646.6 94.8L646.6 94.8Q647.0 94.8 647.3 95.0Q647.6 95.3 647.6 95.7L647.6 95.7Q647.6 96.1 647.3 96.3Q647.0 96.6 646.6 96.6ZM651.0 97.4L652.3 97.4L652.3 98.8L651.0 98.8L651.0 102.1Q651.0 102.4 651.2 102.5Q651.3 102.7 651.6 102.7L651.6 102.7Q651.7 102.7 651.9 102.7Q652.1 102.6 652.2 102.6L652.2 102.6L652.4 103.9Q652.1 104.0 651.9 104.1Q651.6 104.1 651.3 104.1L651.3 104.1Q650.3 104.1 649.8 103.6Q649.3 103.1 649.3 102.2L649.3 102.2L649.3 98.8L648.4 98.8L648.4 97.4L649.3 97.4L649.3 95.9L651.0 95.9L651.0 97.4Z "/></g><defs><clipPath id="satori_bc-id-1-1-6"><path x="674" y="88" width="58" height="23" d="M685.5,88 h35 a11.5,11.5 0 0 1 11.5,11.5 v0 a11.5,11.5 0 0 1 -11.5,11.5 h-35 a11.5,11.5 0 0 1 -11.5,-11.5 v0 a11.5,11.5 0 0 1 11.5,-11.5"/></clipPath></defs><mask id="satori_om-id-1-1-6"><rect x="675" y="89" width="56" height="21" fill="#fff"/><path width="58" height="23" fill="none" stroke="#000" stroke-width="2" d="M677.368,91.368 A11.5,11.5 0 0 1 685.5,88 h35 a11.5,11.5 0 0 1 11.5,11.5 v0 a11.5,11.5 0 0 1 -11.5,11.5 h-35 a11.5,11.5 0 0 1 -11.5,-11.5 v0 A11.5,11.5 0 0 1 677.368,91.368"/></mask><path x="674" y="88" width="58" height="23" fill="#e2e8f018" d="M685.5,88 h35 a11.5,11.5 0 0 1 11.5,11.5 v0 a11.5,11.5 0 0 1 -11.5,11.5 h-35 a11.5,11.5 0 0 1 -11.5,-11.5 v0 a11.5,11.5 0 0 1 11.5,-11.5"/><path width="58" height="23" clip-path="url(#satori_bc-id-1-1-6)" fill="none" stroke="#e2e8f040" stroke-width="2" d="M677.368,91.368 A11.5,11.5 0 0 1 685.5,88 h35 a11.5,11.5 0 0 1 11.5,11.5 v0 a11.5,11.5 0 0 1 -11.5,11.5 h-35 a11.5,11.5 0 0 1 -11.5,-11.5 v0 A11.5,11.5 0 0 1 677.368,91.368"/><g  ><path fill="#e2e8f0" d="M693.3 104L687.8 104L687.8 95.3L689.6 95.3L689.6 102.5L693.3 102.5L693.3 104ZM696.3 104L694.5 104L694.5 97.4L696.3 97.4L696.3 104ZM695.4 96.6L695.4 96.6Q695.0 96.6 694.7 96.3Q694.5 96.1 694.5 95.7L694.5 95.7Q694.5 95.3 694.7 95.1Q695.0 94.8 695.4 94.8L695.4 94.8Q695.8 94.8 696.1 95.0Q696.4 95.3 696.4 95.7L696.4 95.7Q696.4 96.1 696.1 96.3Q695.8 96.6 695.4 96.6ZM699.5 100.2L699.5 100.2L699.5 104L697.8 104L697.8 97.4L699.4 97.4L699.5 98.8Q699.7 98.2 700.2 97.8L700.2 97.8Q700.7 97.4 701.5 97.4L701.5 97.4Q702.2 97.4 702.7 97.7Q703.2 98.0 703.5 98.5Q703.8 99.1 703.8 99.8L703.8 99.8L703.8 104L702 104L702 100.1Q702 99.5 701.7 99.2Q701.4 98.8 700.8 98.8L700.8 98.8Q700.4 98.8 700.2 99.0Q699.9 99.2 699.7 99.5Q699.5 99.8 699.5 100.2ZM707.5 104.1L707.5 104.1Q706.8 104.1 706.3 103.8Q705.8 103.5 705.5 102.9Q705.3 102.4 705.3 101.6L705.3 101.6L705.3 97.4L707.0 97.4L707.0 101.3Q707.0 101.9 707.3 102.3Q707.6 102.6 708.2 102.6L708.2 102.6Q708.6 102.6 708.9 102.5Q709.1 102.3 709.3 102.0Q709.5 101.7 709.5 101.2L709.5 101.2L709.5 97.4L711.2 97.4L711.2 104L709.6 104L709.6 102.6Q709.3 103.3 708.9 103.6L708.9 103.6Q708.3 104.1 707.5 104.1ZM714.1 104L712.2 104L714.3 100.6L712.4 97.4L714.3 97.4L714.8 98.5Q715.1 99.0 715.4 99.5L715.4 99.5Q715.4 99.6 715.5 99.8L715.5 99.8Q715.5 99.6 715.6 99.5L715.6 99.5Q715.8 99.0 716.1 98.5L716.1 98.5L716.7 97.4L718.6 97.4L716.6 100.7L718.7 104L716.8 104L716.1 102.8Q715.8 102.3 715.6 101.8L715.6 101.8Q715.5 101.6 715.4 101.5L715.4 101.5Q715.4 101.6 715.3 101.8L715.3 101.8Q715.1 102.3 714.8 102.8L714.8 102.8L714.1 104Z "/></g></svg>